<svg xmlns="http://www.w3.org/2000/svg" xmlns:xlink="http://www.w3.org/1999/xlink" width="377.951" height="193.712" viewBox="0 0 377.951 193.712"><defs><linearGradient id="a" x1="0.5" y1="1" x2="0.5" gradientUnits="objectBoundingBox"><stop offset="0.172" stop-color="#007fcd"/><stop offset="0.726" stop-color="#b1c91e"/><stop offset="1" stop-color="#f46e0f"/></linearGradient></defs><g transform="translate(-160.722 6.708)"><path d="M112.087,172.838c.061-.322.135-.64.191-.964-7.755-.394-14.776-1.449-19.736-3.139C97.131,170.587,103.975,172.038,112.087,172.838ZM91.6,165.092c0,.024-.007.048-.009.072-.017.579-.037,1.155-.1,1.721,4.431,1.814,11.721,3.172,21,3.6.165-1.181.27-2.38.342-3.587C104.006,165.007,96.455,164.371,91.6,165.092Zm3.12-.844a77.249,77.249,0,0,1,18.145,2.043c.013-.309.041-.613.048-.922a92.737,92.737,0,0,0-13.747-1.292C97.54,164.063,96.063,164.126,94.719,164.247ZM60.386,126.253c.2,1.616.433,3.157.685,4.645a60.554,60.554,0,0,1,3.544,12.933c.035.074.067.161.1.233a40.425,40.425,0,0,0-.944-6.55A88.961,88.961,0,0,0,60.386,126.253Zm37.478,46.868a93.247,93.247,0,0,1,12.409,6.122c.113-.3.239-.6.346-.909-7.355-3.785-13.67-6.111-18.258-6.974A41.087,41.087,0,0,1,97.864,173.121Zm-13.4-48.5c-.274,1.305-.568,2.578-.87,3.831.6-1.127,1.242-2.271,1.908-3.426C85.155,124.894,84.818,124.742,84.466,124.62ZM89.859,175c3.779,3.257,9.977,6.861,17.675,10.227.163-.287.337-.566.492-.857a95.017,95.017,0,0,1-13.079-6A44.747,44.747,0,0,1,89.859,175Zm-1.088.1c-.117.2-.228.394-.35.587a40.2,40.2,0,0,1,6.513,4.027,93.293,93.293,0,0,1,10.362,9.1c.692-.988,1.329-2.012,1.936-3.056-8.136-3.555-14.58-7.375-18.345-10.836C88.851,174.979,88.808,175.035,88.771,175.1Zm1.634-3.524c-.028.08-.074.154-.1.235-.165.448-.322.9-.516,1.331a39.061,39.061,0,0,0,5.867,3.983,93.636,93.636,0,0,0,13,5.952c.518-1.064.977-2.158,1.408-3.268a93.126,93.126,0,0,0-12.411-6.13A36.221,36.221,0,0,0,90.4,171.572ZM75.529,206.218c.022.1.054.213.078.315.376-.046.759-.076,1.133-.131-.4-1.451-.748-2.869-1.075-4.266C75.644,203.468,75.6,204.826,75.529,206.218ZM66.8,186.111c.015-.289.065-.624.072-.9-.065-.011-.124-.037-.189-.05-.324-.061-.648-.122-.966-.2a40.573,40.573,0,0,1-1.777,7.294A94.466,94.466,0,0,1,58.4,205.08c1.059.32,2.145.572,3.241.8.957-2.46,1.788-4.823,2.491-7.07.281-2.478.64-4.816,1.081-6.957A45.12,45.12,0,0,1,66.8,186.111Zm9.1-41.816c.154.039.318.061.47.1a34.894,34.894,0,0,0,2.032-4.1c.3-.94.631-1.912,1.04-2.954.207-.531.45-1.083.681-1.627a100.3,100.3,0,0,0,3.026-11.578c-1.109-.344-2.249-.611-3.4-.853-.875,8.845-2.528,16.15-4.668,20.775C75.353,144.127,75.618,144.223,75.892,144.294Zm-3.285-21.931c-.389-.02-.774-.054-1.166-.063q.228,2.072.381,4.062C72.053,125.057,72.318,123.719,72.607,122.364Zm-13.1,1.566c-.017-.046-.039-.091-.057-.135-.4.1-.8.194-1.19.313.644,1.425,1.236,2.828,1.8,4.218C59.859,126.906,59.67,125.453,59.511,123.93Zm4.806,60.664c-.172-.054-.333-.133-.5-.194-.026-.009-.054-.011-.078-.02a40.387,40.387,0,0,0-3.148,5.967,94.709,94.709,0,0,0-4.632,13.862c.359.135.711.283,1.077.407A93.09,93.09,0,0,0,62.579,191.8,37.48,37.48,0,0,0,64.317,184.594Zm3.265-40.752c.54-.083,1.094-.12,1.649-.159.187-.013.37-.046.561-.054a37.556,37.556,0,0,0,.764-5.654c.015-.637.037-1.294.078-1.98,0-.063.013-.131.015-.191A96.749,96.749,0,0,0,70,122.292a42.575,42.575,0,0,0-5.088.4c-.059,9.335.931,16.7,2.534,21.163C67.491,143.848,67.536,143.848,67.582,143.842Zm6.5.052c.057.009.109.026.165.035.08.015.168.013.25.028,2.112-4.536,3.774-11.9,4.653-20.788-.328-.065-.653-.141-.983-.2a93.183,93.183,0,0,0-3.492,13.575A37.734,37.734,0,0,0,74.078,143.894Zm15.483,34.022c4.109,2.615,9.05,7.046,14.223,12.813.207-.261.444-.5.646-.761a92.663,92.663,0,0,0-10.346-9.109A42.258,42.258,0,0,0,89.561,177.916Zm-16.3-41.607a94.153,94.153,0,0,1,3.47-13.56c-1.16-.167-2.334-.276-3.52-.352-.494,2.306-.9,4.54-1.22,6.685.144,2.778.178,5.417.067,7.825A44.617,44.617,0,0,1,71.374,143c.026.209.044.433.074.633h0c.4.011.8.022,1.19.059A40.816,40.816,0,0,1,73.26,136.308Zm.37,49.791c-.048-.181-.091-.379-.141-.553-.459,4.473.076,10.849,1.538,18.25.048-1.5.057-2.939.046-4.355-.524-2.53-.927-4.949-1.177-7.194A44.755,44.755,0,0,1,73.63,186.1Zm17.375-16.572c-.017.067-.028.139-.046.207,5.236.655,12.487,3.381,20.129,7.27.357-1.164.633-2.363.879-3.572-8.83-.87-16.131-2.515-20.767-4.645C91.149,169.038,91.066,169.277,91.005,169.527Zm-.2-10.66c.141.494.289.983.392,1.49a39.244,39.244,0,0,0,7.04-.226,93.783,93.783,0,0,0,14.042-2.832c-.207-1.192-.468-2.363-.764-3.518-8.987.929-16.368,2.661-20.76,4.851C90.779,158.709,90.785,158.792,90.807,158.868Zm-2.363-5.36c.363.585.694,1.192,1,1.812l.03.052a38.552,38.552,0,0,0,6.8-2.041,94.283,94.283,0,0,0,12.794-6.359,42.065,42.065,0,0,0-2.719-5.03,94.786,94.786,0,0,1-11.715,8.462A42.378,42.378,0,0,1,88.445,153.507Zm3.041,8.726c.024.22.022.446.039.666.009.107.024.209.03.315a40.216,40.216,0,0,1,7.621-.568,93.385,93.385,0,0,1,13.742,1.273c-.02-1.236-.117-2.447-.246-3.653a83.97,83.97,0,0,1-17.236,2.206A31.9,31.9,0,0,1,91.486,162.233Zm19.877-9.043c-.083-.294-.146-.6-.235-.888a75.082,75.082,0,0,0-18.189,4.766A75.045,75.045,0,0,1,111.363,153.19Zm-21.617,2.741c.061.137.1.283.165.42.076.178.165.35.237.531,4.629-2.537,12.08-4.584,20.523-5.922-.4-1.175-.866-2.315-1.362-3.439a94.706,94.706,0,0,1-12.818,6.365A39.82,39.82,0,0,1,89.746,155.931Zm4.3,5.911a79.614,79.614,0,0,0,18.561-2.189c-.037-.309-.061-.622-.1-.931a94.691,94.691,0,0,1-14.1,2.83C96.994,161.709,95.51,161.807,94.042,161.841Zm-16.05-17.562c-.037.2-.087.42-.12.616.17.063.326.152.494.217.5.2,1,.392,1.484.627a40.725,40.725,0,0,1,3.189-6.761,94.261,94.261,0,0,1,7.995-11.471,40.325,40.325,0,0,0-4.967-2.262q-1.716,2.963-3.128,5.791A61.619,61.619,0,0,1,77.992,144.279Zm1.847,39.138-.011.007c1.005,4.932,4.031,11.854,8.53,19.516.331-.154.67-.294,1-.455-4.612-7.068-8.1-13.91-9.452-19.1Zm3.922-35.775c-.07.131-.157.272-.224.4.091.07.165.157.255.231a21.466,21.466,0,0,1,1.825,1.647c.054.057.12.1.174.159,4.37-2.415,10.042-7.39,15.979-14.056a42.593,42.593,0,0,0-4.355-4.118q-2.438,2.193-4.571,4.351A61.19,61.19,0,0,1,83.761,147.642Zm20.068-5.508c.583-.468,1.162-.922,1.749-1.412-.07-.1-.148-.191-.218-.289-7.388,3.718-13,7.46-16.416,10.666A67.639,67.639,0,0,1,103.829,142.134Zm-14.543,9.422a42.228,42.228,0,0,0,4.614-2.378,83.538,83.538,0,0,0,7.723-5.312A62.556,62.556,0,0,0,89.287,151.556ZM82.1,182.1c-.313.207-.618.429-.944.618,1.142,4.662,4.338,11.375,9.465,19.157,1.018-.548,1.995-1.155,2.956-1.786-3.637-8.234-7.544-14.723-10.975-18.282C82.445,181.916,82.264,181.992,82.1,182.1Zm6.657,3.555A40.75,40.75,0,0,1,84.8,180.03l0,0c-.209.191-.413.389-.631.572a40.415,40.415,0,0,1,4.93,5.826,93.675,93.675,0,0,1,7.042,11.854c.955-.724,1.873-1.495,2.765-2.289A95.122,95.122,0,0,1,88.758,185.654Zm-4.664-3.076c3.222,3.757,6.716,9.737,10,17.169.294-.2.6-.387.885-.592a92.647,92.647,0,0,0-7.042-11.893A41.306,41.306,0,0,0,84.094,182.578Zm1.5-2.426a40.235,40.235,0,0,0,3.629,5.123A94.561,94.561,0,0,0,99.35,195.591c.259-.235.526-.459.777-.7C93.8,189.785,88.549,184.564,85.59,180.152Zm-4.447-33.771-.013.039c.394.226.788.455,1.164.707a33.37,33.37,0,0,0,2.952-2.967c.635-.9,1.334-1.827,2.138-2.806.442-.539.929-1.09,1.412-1.64A100.861,100.861,0,0,0,95,130.019c-.885-.627-1.8-1.205-2.737-1.762-.272.337-.52.67-.785,1.009a92.069,92.069,0,0,1-6.115,11.515A39.686,39.686,0,0,1,81.144,146.381Zm3.135-6.687a41.917,41.917,0,0,0-2.541,5.1,43.892,43.892,0,0,0,3.126-4.336,86.08,86.08,0,0,0,4.962-9.054A84.425,84.425,0,0,0,84.279,139.693Zm1.908,10.823c.043.048.08.1.124.152.172.194.365.368.531.57,3.629-3.835,10.074-8.073,17.671-11.943-.735-.983-1.527-1.921-2.343-2.835C96.263,143.094,90.631,148.045,86.187,150.516Zm10.76-18.992c-.274-.218-.535-.453-.816-.664-.624,1.09-1.26,2.145-1.895,3.18C95.106,133.206,96.013,132.366,96.946,131.525Zm-9.62,45.739c-.091.122-.207.224-.3.346-.265.333-.522.679-.809,1,2.517,4.075,7.623,9.467,14.9,15.282.816-.846,1.54-1.775,2.28-2.691C97.388,184.505,91.675,179.563,87.326,177.263ZM51.134,156.858c.061-.165.113-.333.181-.494a33.246,33.246,0,0,1-3.215-1.21,34.184,34.184,0,0,1,3.017,1.738Zm-17.3,27.456c-.154.1-.313.209-.468.313.518.964,1.083,1.9,1.675,2.813a96.249,96.249,0,0,1,11.21-8.088A95.384,95.384,0,0,1,33.837,184.314Zm26.3-.17c.154-.389.307-.779.435-1.146-.1-.057-.194-.137-.3-.2-.2-.117-.4-.226-.6-.348a40.839,40.839,0,0,1-3.938,6.331A93.668,93.668,0,0,1,46.485,199.3c.9.629,1.838,1.21,2.789,1.769,1.769-2.169,3.4-4.305,4.851-6.376A60.345,60.345,0,0,1,60.138,184.144ZM49.82,167.158c-.041-.337-.041-.687-.07-1.029-.011-.165-.044-.324-.05-.489a39.8,39.8,0,0,0-6.711-.82,94.329,94.329,0,0,0-14.625.635c.022,1.062.1,2.1.2,3.141C37.526,169.1,45.073,168.583,49.82,167.158Zm7.586,13.705c-.211-.172-.4-.368-.607-.546-.044-.037-.089-.067-.133-.1a39.438,39.438,0,0,0-5.41,4.22,94.259,94.259,0,0,0-9.829,10.714c.794.759,1.669,1.431,2.521,2.123C48.682,189.855,53.418,184.085,57.405,180.863Zm1.051.785c-.124-.087-.233-.194-.355-.283-.072-.054-.154-.1-.226-.15-3.933,3.165-8.71,8.974-13.472,16.438.315.25.6.537.925.779a92.913,92.913,0,0,0,9.261-10.5A37.761,37.761,0,0,0,58.456,181.649ZM39.419,193.081c.326.355.64.722.977,1.068,1.125-1.408,2.249-2.73,3.37-4.014Q41.69,191.613,39.419,193.081Zm10.527-25.1c-.007-.046-.007-.094-.013-.139s-.02-.083-.026-.124A54.675,54.675,0,0,1,34.981,169.4c-2.006,0-4.149-.085-6.348-.207.05.444.089.89.152,1.331a93.824,93.824,0,0,0,14.086-.87A38.215,38.215,0,0,0,49.946,167.985Zm-20.462,3.981c-.154,0-.324-.013-.481-.015.2,1.123.45,2.221.733,3.309a97,97,0,0,1,12.77-4.12A94.2,94.2,0,0,1,29.484,171.966Zm16.024,4.157a47.143,47.143,0,0,1,5.164-1.969c.344-.213.681-.426.992-.642-.057-.122-.089-.255-.146-.379a20.5,20.5,0,0,1-.842-2.212c-.054-.165-.137-.315-.185-.483-5.043.246-12.341,2.16-20.586,5.4a41.778,41.778,0,0,0,1.984,5.6c2.778-.733,5.389-1.518,7.784-2.343C41.692,177.968,43.648,176.965,45.508,176.123ZM32.14,182c.185.407.355.822.55,1.223.135-.041.27-.083.4-.126,1.388-.907,2.752-1.747,4.1-2.552Q34.781,181.3,32.14,182Zm18.152,1.381a46.487,46.487,0,0,1,4.268-3.446c.281-.333.557-.668.8-.988-.065-.067-.113-.148-.176-.218A20.29,20.29,0,0,1,53.7,176.9c-.113-.152-.25-.285-.359-.439a40.093,40.093,0,0,0-6.037,2.959,94.965,94.965,0,0,0-11.921,8.515,42.468,42.468,0,0,0,3.629,4.7c2.371-1.527,4.6-3.067,6.633-4.6C47.222,186.324,48.778,184.758,50.292,183.378Zm22.657,2.054c-.17.017-.346.015-.518.03-.072.007-.144.017-.218.024.977,5.195.616,12.92-.722,21.363,1.151-.024,2.284-.113,3.409-.233.007-.109.022-.226.028-.335C73.071,197.769,72.4,190.472,72.949,185.432Zm4.266-.933c-.12.039-.248.063-.372.1s-.263.07-.394.107c-.45.133-.9.274-1.362.374a39.149,39.149,0,0,0,.231,7.009,93.9,93.9,0,0,0,2.845,14.095,41.882,41.882,0,0,0,4.98-1.177,92.741,92.741,0,0,0-3.035-13.559A36.77,36.77,0,0,0,77.215,184.5ZM64.354,137.385a40.085,40.085,0,0,1,.966,6.907c.248-.065.494-.135.744-.191-1.738-5.019-2.565-12.694-2.552-21.2-1.157.2-2.3.444-3.426.722.007.057.009.117.015.172A94.755,94.755,0,0,1,64.354,137.385Zm6.28,48.182c-.579,0-1.151-.035-1.716-.087-.124-.011-.25-.007-.372-.02a39.334,39.334,0,0,0-1.93,6.683,94.021,94.021,0,0,0-1.649,14.325,42.465,42.465,0,0,0,5.106.4c1.514-9.254,1.662-16.683.746-21.308C70.758,185.556,70.7,185.567,70.634,185.567ZM59.361,146.892c.046-.031.1-.052.146-.081.139-.085.274-.178.416-.261a37.569,37.569,0,0,1-2.865-4.51A38.3,38.3,0,0,1,59.361,146.892Zm4.183,59.361c.078-1.614.191-3.174.324-4.7-.494,1.444-1.031,2.926-1.623,4.449C62.679,206.083,63.107,206.179,63.545,206.253Zm-7.414-65.979a94.421,94.421,0,0,1-5.2-13.131c-1.033.546-2.028,1.149-3,1.775A90.291,90.291,0,0,1,56.8,141.556C56.57,141.127,56.344,140.7,56.131,140.274ZM49.8,201.363c.411.233.816.476,1.236.7q.93-2.444,1.917-4.729Q51.479,199.3,49.8,201.363Zm13.355-17.195c-.107-.039-.2-.094-.309-.137-.224-.091-.457-.161-.677-.257-3.087,3.7-6.611,10.214-9.87,18.894,1.009.487,2.045.922,3.1,1.331a95.034,95.034,0,0,1,4.647-13.888A41.209,41.209,0,0,1,63.153,184.168Zm16.024-.444c-.191.089-.379.185-.574.265a40.431,40.431,0,0,1,2.869,7.029,93.728,93.728,0,0,1,3.043,13.5c1.123-.389,2.215-.842,3.291-1.323-4.481-7.629-7.473-14.5-8.506-19.516C79.262,183.7,79.219,183.7,79.177,183.724ZM40.3,135.105c-.8.82-1.54,1.688-2.265,2.576a95.133,95.133,0,0,1,11.24,8.278A94.645,94.645,0,0,1,40.3,135.105Zm13.664,16.753c.024-.033.05-.063.076-.094s.033-.054.05-.078c-3.126-3.94-8.939-8.741-16.431-13.531-.281.352-.57.7-.84,1.055C44.114,143.378,50.329,147.858,53.966,151.858ZM52.343,154.3c.089-.157.207-.292.3-.444.168-.285.311-.583.492-.857-3.217-3.631-9.1-8.11-17.153-12.661-.613.877-1.188,1.782-1.738,2.7a93.305,93.305,0,0,0,11.41,8.088A37.02,37.02,0,0,0,52.343,154.3Zm-.392.753c.035-.065.059-.135.091-.2a38.74,38.74,0,0,1-6.692-3.207,93.831,93.831,0,0,1-11.412-8.082c-.215.372-.442.733-.644,1.112,7.512,5.541,14.053,9.085,18.624,10.438Zm2.826-4.194.052-.063a32.018,32.018,0,0,1-2.537-2c.809.831,1.534,1.642,2.156,2.421C54.551,151.09,54.671,150.979,54.778,150.858Zm4-3.594c.03-.02.052-.048.083-.067-1.745-4.705-5.806-11.073-11.447-17.943-.357.235-.722.459-1.072.7,5.65,6.22,10.177,12.4,12.4,17.329Zm2.4-1.41c.076-.039.159-.065.235-.1.442-.22.9-.4,1.362-.592.2-.078.383-.178.583-.252-.455-4.821-2.58-11.913-6.418-20.34a41.651,41.651,0,0,0-4.712,1.949,93.487,93.487,0,0,0,5.178,13.12A38.622,38.622,0,0,0,61.182,145.854Zm-4.79,3.337c.072-.067.157-.12.228-.185.328-.292.644-.6.99-.87-1.932-4.444-6.141-10.523-12.387-17.338-.877.659-1.684,1.4-2.508,2.123C47.592,140.466,52.456,146.239,56.392,149.191Zm-.581.526c.039-.039.085-.07.124-.109l.02-.022c-4.007-3.024-8.845-8.754-13.7-16.272-.3.268-.629.5-.918.774a93.231,93.231,0,0,0,9,10.908A38.162,38.162,0,0,0,55.811,149.718ZM47.553,170.16c.981-.133,1.927-.237,2.8-.281-.017-.065-.024-.133-.041-.2-.022-.089-.057-.174-.078-.265C49.38,169.708,48.464,169.934,47.553,170.16Zm2.382-8.871c.009-.057.011-.117.02-.174a39.12,39.12,0,0,1-7.318-.992,93.65,93.65,0,0,1-13.381-4.17c-.087.433-.185.864-.261,1.3,8.85,2.941,16.157,4.288,20.915,4.159C49.915,161.372,49.929,161.332,49.935,161.289Zm-6.879,2.1a43.464,43.464,0,0,1,6.611.761c0-.039,0-.078,0-.117l.007-.1a40.048,40.048,0,0,0-6.694-1.164,94.636,94.636,0,0,0-14.571-.124c-.022.455-.061.907-.067,1.368A95.517,95.517,0,0,1,43.056,163.39Zm6.99-2.88c.1-.492.218-.975.352-1.453a39.889,39.889,0,0,0-6.1-2.839A94.431,94.431,0,0,0,30.143,152.3c-.3,1-.548,2.028-.768,3.063a93.517,93.517,0,0,0,13.39,4.183A37.771,37.771,0,0,0,50.046,160.51Zm-.337,2.813h0c.011-.176.011-.352.026-.526-.148,0-.285.013-.437.013-.759,0-1.571-.041-2.41-.1C47.9,162.886,48.849,163.09,49.709,163.323Zm-7.4-1.2a96.984,96.984,0,0,1-13.525-3.474c-.157,1.12-.261,2.254-.337,3.4A96.263,96.263,0,0,1,42.306,162.126ZM49.3,176.121c-1.018.376-2.071.794-3.2,1.305-2.054.931-4.233,2.067-6.481,3.348A64.078,64.078,0,0,0,49.3,176.121ZM32.679,145.954c-.5,1.027-.953,2.08-1.377,3.15a95.618,95.618,0,0,1,13.509,4.505A95.4,95.4,0,0,1,32.679,145.954Zm17.691,31.13c.912-.444,1.8-.842,2.626-1.157-.061-.1-.109-.2-.17-.3-.028-.048-.065-.089-.094-.137C52.028,176.025,51.221,176.556,50.37,177.085Zm.474-19.444c.017-.052.037-.1.054-.152l.007-.015a39.864,39.864,0,0,0-6.043-3.2,94.579,94.579,0,0,0-13.773-4.61c-.159.422-.333.838-.479,1.266A95.682,95.682,0,0,1,44.8,154.88,43.543,43.543,0,0,1,50.844,157.641Z" transform="translate(279.291 -129)" fill="url(#a)"/><g transform="translate(161.374 149.329)"><path d="M81.912,178.406V142.311h25.679v2.423h-23v14.284H105.27v2.421H84.592V175.98h23.255v2.426Z" transform="translate(-81.912 -141.798)" fill="#007fcd" stroke="#006fb9" stroke-miterlimit="10" stroke-width="1"/><path d="M114.307,164.072v14.334h-2.68V164.122l-15.47-21.811h3.352l13.509,19.39,13.559-19.39h3.2Z" transform="translate(-65.168 -141.798)" fill="#007fcd" stroke="#006fb9" stroke-miterlimit="10" stroke-width="1"/><path d="M114.467,178.406V142.311h25.679v2.423h-23v14.284h20.678v2.421H117.147V175.98H140.4v2.426Z" transform="translate(-43.646 -141.798)" fill="#007fcd" stroke="#006fb9" stroke-miterlimit="10" stroke-width="1"/><path d="M136.675,178.406V142.311h2.682v36.095Z" transform="translate(-17.542 -141.798)" fill="#007fcd" stroke="#006fb9" stroke-miterlimit="10" stroke-width="1"/><path d="M170.689,178.406l-25.42-32.072v32.072h-2.578V142.311h2.526l24.9,31.4v-31.4H172.7v36.095Z" transform="translate(-10.47 -141.798)" fill="#007fcd" stroke="#006fb9" stroke-miterlimit="10" stroke-width="1"/><path d="M185.59,173.345a9.283,9.283,0,0,1-2.476,3.124,11.714,11.714,0,0,1-3.763,2.01,15.47,15.47,0,0,1-4.821.72,20.279,20.279,0,0,1-7.812-1.442,23.981,23.981,0,0,1-6.729-4.331l1.753-2.014a25.7,25.7,0,0,0,2.965,2.4,16.41,16.41,0,0,0,6.265,2.626,19,19,0,0,0,3.711.335,12.264,12.264,0,0,0,3.714-.54,8.794,8.794,0,0,0,2.887-1.494,6.979,6.979,0,0,0,1.858-2.271,6.245,6.245,0,0,0,.67-2.861v-.1a7.149,7.149,0,0,0-.439-2.582,4.944,4.944,0,0,0-1.6-2.06,11.572,11.572,0,0,0-3.12-1.677,32.393,32.393,0,0,0-5.051-1.364,35.528,35.528,0,0,1-5.569-1.575,13.667,13.667,0,0,1-3.79-2.115,7.239,7.239,0,0,1-2.141-2.806,9.389,9.389,0,0,1-.67-3.663v-.1a8.115,8.115,0,0,1,.877-3.737,9.408,9.408,0,0,1,2.423-3.017,11.339,11.339,0,0,1,3.661-2.01,14.23,14.23,0,0,1,4.64-.722,19.123,19.123,0,0,1,6.779,1.083,20.351,20.351,0,0,1,5.6,3.3l-1.7,2.115a15.462,15.462,0,0,0-10.775-4.075,11.468,11.468,0,0,0-3.637.542,8.99,8.99,0,0,0-2.782,1.468,6.519,6.519,0,0,0-1.78,2.165,5.812,5.812,0,0,0-.62,2.632v.1a7.325,7.325,0,0,0,.439,2.6,5.041,5.041,0,0,0,1.6,2.115,11.3,11.3,0,0,0,3.222,1.729,37.078,37.078,0,0,0,5.26,1.442q6.288,1.292,9.074,3.635a7.832,7.832,0,0,1,2.785,6.315v.1A8.9,8.9,0,0,1,185.59,173.345Z" transform="translate(9.863 -142.075)" fill="#007fcd" stroke="#006fb9" stroke-miterlimit="10" stroke-width="1"/><path d="M189.688,144.734v33.671h-2.682V144.734H174.423v-2.423h27.843v2.423Z" transform="translate(26.829 -141.798)" fill="#007fcd" stroke="#006fb9" stroke-miterlimit="10" stroke-width="1"/><path d="M190.434,178.406V142.311h2.682v36.095Z" transform="translate(45.649 -141.798)" fill="#007fcd" stroke="#006fb9" stroke-miterlimit="10" stroke-width="1"/><path d="M210.13,144.734v33.671h-2.68V144.734H194.867v-2.423H222.71v2.423Z" transform="translate(50.859 -141.798)" fill="#007fcd" stroke="#006fb9" stroke-miterlimit="10" stroke-width="1"/><path d="M239.178,169.926a13.722,13.722,0,0,1-3.041,4.971,12.7,12.7,0,0,1-4.666,3.043,16.749,16.749,0,0,1-6.006,1.031,17.044,17.044,0,0,1-5.956-1,12.9,12.9,0,0,1-4.692-2.991,13.449,13.449,0,0,1-3.067-4.871,19.047,19.047,0,0,1-1.083-6.707V142.311h2.682v20.834q0,6.445,3.222,9.922t9,3.483a14.092,14.092,0,0,0,4.949-.827,9.921,9.921,0,0,0,3.792-2.476,11.148,11.148,0,0,0,2.423-4.125,17.627,17.627,0,0,0,.848-5.724V142.311h2.682v20.78A19.865,19.865,0,0,1,239.178,169.926Z" transform="translate(69.428 -141.798)" fill="#007fcd" stroke="#006fb9" stroke-miterlimit="10" stroke-width="1"/><path d="M242.531,144.734v33.671h-2.682V144.734H227.268v-2.423h27.843v2.423Z" transform="translate(88.945 -141.798)" fill="#007fcd" stroke="#006fb9" stroke-miterlimit="10" stroke-width="1"/><path d="M243.2,178.406V142.311h25.677v2.423h-23v14.284h20.678v2.421H245.876V175.98h23.255v2.426Z" transform="translate(107.667 -141.798)" fill="#007fcd" stroke="#006fb9" stroke-miterlimit="10" stroke-width="1"/></g><g transform="translate(161.374 109.8)" opacity="0.81"><path d="M84.847,130.725a2.611,2.611,0,0,0,.748,1.086,5.371,5.371,0,0,0,1.492.888,15.561,15.561,0,0,0,2.45.755,9.989,9.989,0,0,1,4.442,2.138,4.961,4.961,0,0,1,1.429,3.766,6.282,6.282,0,0,1-.457,2.436,5.341,5.341,0,0,1-3.2,3.056,7.155,7.155,0,0,1-2.473.416,9.546,9.546,0,0,1-3.953-.8,11.07,11.07,0,0,1-3.413-2.486l1.262-1.716a10.6,10.6,0,0,0,2.859,2.206,7.308,7.308,0,0,0,3.324.727,4.237,4.237,0,0,0,2.922-.977,3.3,3.3,0,0,0,1.1-2.584,3.94,3.94,0,0,0-.207-1.321,2.611,2.611,0,0,0-.724-1.053,4.919,4.919,0,0,0-1.431-.859,15.952,15.952,0,0,0-2.339-.742,16.749,16.749,0,0,1-2.7-.892,6.545,6.545,0,0,1-1.9-1.216,4.461,4.461,0,0,1-1.109-1.66,6.372,6.372,0,0,1-.361-2.256,5.835,5.835,0,0,1,.437-2.286,5.251,5.251,0,0,1,1.238-1.795,5.9,5.9,0,0,1,1.88-1.186,6.4,6.4,0,0,1,2.371-.433,8.8,8.8,0,0,1,3.463.631,10.169,10.169,0,0,1,2.872,1.89l-1.183,1.806a8.725,8.725,0,0,0-2.537-1.719,6.836,6.836,0,0,0-2.667-.533,4.41,4.41,0,0,0-1.586.27,3.856,3.856,0,0,0-1.21.711,2.975,2.975,0,0,0-.772,1.066,3.328,3.328,0,0,0-.272,1.338A4.047,4.047,0,0,0,84.847,130.725Z" transform="translate(-81.912 -123.872)" fill="#1a1818" stroke="#1a1818" stroke-miterlimit="10" stroke-width="1"/><path d="M113.538,144.885H111.35l-2.115-5.48H99.422l-2.136,5.48H95.2L103.414,124h1.906Zm-9.2-18.13-4.12,10.575h8.217Z" transform="translate(-66.296 -123.79)" fill="#1a1818" stroke="#1a1818" stroke-miterlimit="10" stroke-width="1"/><path d="M124.521,124.068H126.5v20.738h-1.623L113.239,127.8v17.005h-1.984V124.068h1.906l11.36,16.62Z" transform="translate(-47.421 -123.711)" fill="#1a1818" stroke="#1a1818" stroke-miterlimit="10" stroke-width="1"/><path d="M148.368,126.233H137.445v7.4h9.763v2.134h-9.763v9.037h-2.034V124.068h12.957Z" transform="translate(-19.027 -123.711)" fill="#1a1818" stroke="#1a1818" stroke-miterlimit="10" stroke-width="1"/><path d="M161.506,144.806l-5.228-8.058h-5.154v8.058h-2.034V124.068h7.753a7.748,7.748,0,0,1,2.691.446,5.822,5.822,0,0,1,2.049,1.262,5.567,5.567,0,0,1,1.314,1.954,6.692,6.692,0,0,1,.463,2.537,6.928,6.928,0,0,1-.361,2.323,5.5,5.5,0,0,1-1.016,1.782,5.825,5.825,0,0,1-1.56,1.257,6.652,6.652,0,0,1-1.958.714l5.539,8.465Zm-1.394-17.488a4.934,4.934,0,0,0-3.409-1.086h-5.578v8.443h5.554a5.691,5.691,0,0,0,1.86-.3,4.436,4.436,0,0,0,1.471-.848,3.821,3.821,0,0,0,.968-1.353,4.523,4.523,0,0,0,.348-1.816A3.863,3.863,0,0,0,160.112,127.318Z" transform="translate(-2.947 -123.711)" fill="#1a1818" stroke="#1a1818" stroke-miterlimit="10" stroke-width="1"/><path d="M181.563,144.885h-2.188l-2.115-5.48h-9.816l-2.136,5.48h-2.086L171.439,124h1.906Zm-9.2-18.13-4.122,10.575h8.219Z" transform="translate(13.663 -123.79)" fill="#1a1818" stroke="#1a1818" stroke-miterlimit="10" stroke-width="1"/><path d="M192.545,124.068h1.984v20.738h-1.623L181.263,127.8v17.005h-1.984V124.068h1.906l11.36,16.62Z" transform="translate(32.537 -123.711)" fill="#1a1818" stroke="#1a1818" stroke-miterlimit="10" stroke-width="1"/><path d="M209.138,143.209a9.118,9.118,0,0,1-1.636,1.14,8.533,8.533,0,0,1-1.88.737,8.637,8.637,0,0,1-2.243.27,7.922,7.922,0,0,1-3.607-.831,8.977,8.977,0,0,1-2.861-2.269,10.592,10.592,0,0,1-1.893-3.392,13.237,13.237,0,0,1,0-8.382,11,11,0,0,1,1.893-3.42,8.927,8.927,0,0,1,2.887-2.31,7.979,7.979,0,0,1,3.659-.848,9.523,9.523,0,0,1,2.225.239,8.627,8.627,0,0,1,1.845.668,8.18,8.18,0,0,1,1.571,1.035,14.447,14.447,0,0,1,1.39,1.349l-1.39,1.716a11.606,11.606,0,0,0-2.487-2.043,6.047,6.047,0,0,0-3.18-.8,5.966,5.966,0,0,0-2.769.655,6.78,6.78,0,0,0-2.215,1.806,8.611,8.611,0,0,0-1.471,2.708,10.391,10.391,0,0,0-.526,3.363,10.51,10.51,0,0,0,.526,3.376,8.548,8.548,0,0,0,1.471,2.724,7.012,7.012,0,0,0,2.215,1.825,5.9,5.9,0,0,0,2.769.666,6.2,6.2,0,0,0,3.193-.783,11.356,11.356,0,0,0,2.628-2.21l1.338,1.514A13.581,13.581,0,0,1,209.138,143.209Z" transform="translate(50.238 -123.904)" fill="#1a1818" stroke="#1a1818" stroke-miterlimit="10" stroke-width="1"/><path d="M211.57,124.068v20.738h-2.034V124.068Z" transform="translate(68.102 -123.711)" fill="#1a1818" stroke="#1a1818" stroke-miterlimit="10" stroke-width="1"/><path d="M221.331,130.725a2.632,2.632,0,0,0,.748,1.086,5.372,5.372,0,0,0,1.492.888,15.562,15.562,0,0,0,2.45.755,9.989,9.989,0,0,1,4.442,2.138,4.961,4.961,0,0,1,1.429,3.766,6.241,6.241,0,0,1-.457,2.436,5.341,5.341,0,0,1-3.2,3.056,7.155,7.155,0,0,1-2.474.416,9.546,9.546,0,0,1-3.953-.8,11.071,11.071,0,0,1-3.413-2.486l1.262-1.716a10.632,10.632,0,0,0,2.859,2.206,7.315,7.315,0,0,0,3.324.727,4.237,4.237,0,0,0,2.922-.977,3.293,3.293,0,0,0,1.1-2.584,3.941,3.941,0,0,0-.207-1.321,2.611,2.611,0,0,0-.724-1.053,4.891,4.891,0,0,0-1.431-.859,16,16,0,0,0-2.336-.742,16.779,16.779,0,0,1-2.7-.892,6.545,6.545,0,0,1-1.9-1.216,4.43,4.43,0,0,1-1.107-1.66,6.321,6.321,0,0,1-.363-2.256,5.835,5.835,0,0,1,.437-2.286,5.252,5.252,0,0,1,1.238-1.795,5.928,5.928,0,0,1,1.88-1.186,6.4,6.4,0,0,1,2.371-.433,8.8,8.8,0,0,1,3.463.631,10.169,10.169,0,0,1,2.872,1.89l-1.183,1.806a8.727,8.727,0,0,0-2.537-1.719,6.828,6.828,0,0,0-2.667-.533,4.39,4.39,0,0,0-1.584.27,3.842,3.842,0,0,0-1.212.711,2.976,2.976,0,0,0-.772,1.066,3.327,3.327,0,0,0-.27,1.338A4.05,4.05,0,0,0,221.331,130.725Z" transform="translate(78.516 -123.872)" fill="#1a1818" stroke="#1a1818" stroke-miterlimit="10" stroke-width="1"/><path d="M246.89,143.209a9.039,9.039,0,0,1-1.636,1.14,8.532,8.532,0,0,1-1.88.737,8.62,8.62,0,0,1-2.241.27,7.925,7.925,0,0,1-3.609-.831,8.946,8.946,0,0,1-2.859-2.269,10.593,10.593,0,0,1-1.893-3.392,13.2,13.2,0,0,1,0-8.382,11,11,0,0,1,1.893-3.42,8.881,8.881,0,0,1,2.887-2.31,7.964,7.964,0,0,1,3.657-.848,9.555,9.555,0,0,1,2.228.239,8.607,8.607,0,0,1,1.843.668,8.262,8.262,0,0,1,1.573,1.035,14.967,14.967,0,0,1,1.39,1.349l-1.39,1.716a11.713,11.713,0,0,0-2.487-2.043,6.06,6.06,0,0,0-3.183-.8,5.966,5.966,0,0,0-2.769.655,6.8,6.8,0,0,0-2.215,1.806,8.606,8.606,0,0,0-1.468,2.708,10.39,10.39,0,0,0-.529,3.363,10.508,10.508,0,0,0,.529,3.376A8.543,8.543,0,0,0,236.2,140.7a7.035,7.035,0,0,0,2.215,1.825,5.9,5.9,0,0,0,2.769.666,6.2,6.2,0,0,0,3.194-.783A11.313,11.313,0,0,0,247,140.2l1.34,1.514A13.593,13.593,0,0,1,246.89,143.209Z" transform="translate(94.613 -123.904)" fill="#1a1818" stroke="#1a1818" stroke-miterlimit="10" stroke-width="1"/><path d="M264.387,138.706a11.128,11.128,0,0,1-1.882,3.422,9.106,9.106,0,0,1-2.911,2.352,8.555,8.555,0,0,1-7.51.017,9.108,9.108,0,0,1-2.9-2.328,10.644,10.644,0,0,1-1.867-3.4,12.693,12.693,0,0,1-.657-4.105,12.478,12.478,0,0,1,.668-4.1,11.088,11.088,0,0,1,1.882-3.424,9.112,9.112,0,0,1,2.911-2.354,8.546,8.546,0,0,1,7.51-.015,9.072,9.072,0,0,1,2.9,2.326,10.667,10.667,0,0,1,1.867,3.4,12.69,12.69,0,0,1,.657,4.105A12.522,12.522,0,0,1,264.387,138.706Zm-1.971-7.392a8.451,8.451,0,0,0-1.481-2.726,7.236,7.236,0,0,0-2.254-1.836,6.017,6.017,0,0,0-2.848-.683,6.167,6.167,0,0,0-2.848.666,6.825,6.825,0,0,0-2.228,1.825,8.779,8.779,0,0,0-1.455,2.708,10.279,10.279,0,0,0-.529,3.333,10.4,10.4,0,0,0,.529,3.346,8.453,8.453,0,0,0,1.481,2.726,7.238,7.238,0,0,0,2.254,1.836,6.011,6.011,0,0,0,2.848.683,6.168,6.168,0,0,0,2.848-.666,6.8,6.8,0,0,0,2.225-1.825,8.783,8.783,0,0,0,1.457-2.708,10.277,10.277,0,0,0,.529-3.333A10.4,10.4,0,0,0,262.416,131.314Z" transform="translate(111.743 -123.904)" fill="#1a1818" stroke="#1a1818" stroke-miterlimit="10" stroke-width="1"/></g></g></svg>