<svg xmlns="http://www.w3.org/2000/svg" width="16.714" height="16.971" viewBox="0 0 16.714 16.971"><path d="M413.993,89.739l-7.423-7.186a.929.929,0,0,0-1.3,0l-7.423,7.186a.933.933,0,0,0,.649,1.6h.822v7.451a.466.466,0,0,0,.466.466h4.761a.467.467,0,0,0,.466-.466V93.222h1.816v5.571a.467.467,0,0,0,.466.466h4.8a.466.466,0,0,0,.466-.466V91.342h.783a.933.933,0,0,0,.649-1.6Zm-1.9.67a.467.467,0,0,0-.466.466v7.451h-3.866V92.755a.466.466,0,0,0-.466-.466h-2.749a.466.466,0,0,0-.466.466v5.571h-3.828V90.875a.467.467,0,0,0-.466-.466H398.5l7.423-7.186-.324-.335.324.335,7.424,7.186Z" transform="translate(-397.563 -82.288)" fill="#fff"/></svg>