<svg xmlns="http://www.w3.org/2000/svg" width="10.704" height="15.386" viewBox="0 0 10.704 15.386"><path d="M2312.177,1303.1a5.358,5.358,0,0,0-5.352,5.352c0,1.4.873,3.506,2.595,6.252,1.271,2.028,2.56,3.676,2.573,3.693a.234.234,0,0,0,.184.09h0a.233.233,0,0,0,.184-.091c.013-.017,1.3-1.681,2.573-3.717,1.721-2.757,2.594-4.852,2.594-6.227A5.358,5.358,0,0,0,2312.177,1303.1Zm0,7.932a2.581,2.581,0,1,1,2.581-2.581A2.584,2.584,0,0,1,2312.177,1311.035Z" transform="translate(-2306.825 -1303.102)" fill="#fff"/></svg>