<svg xmlns="http://www.w3.org/2000/svg" xmlns:xlink="http://www.w3.org/1999/xlink" width="413.377" height="71.327" viewBox="0 0 413.377 71.327"><defs><linearGradient id="a" x1="0.5" y1="1" x2="0.5" gradientUnits="objectBoundingBox"><stop offset="0.172" stop-color="#007fcd"/><stop offset="0.726" stop-color="#b1c91e"/><stop offset="1" stop-color="#f46e0f"/></linearGradient></defs><g transform="translate(99.725 -80.838)"><g transform="translate(-99.725 80.838)"><path d="M98.972,164.922c.051-.272.114-.539.161-.813-6.541-.332-12.461-1.222-16.645-2.648C86.358,163.023,92.13,164.247,98.972,164.922Zm-17.279-6.533c0,.02-.006.04-.007.061-.015.488-.031.974-.084,1.451,3.737,1.53,9.885,2.675,17.711,3.038.139-1,.228-2.007.288-3.025C92.156,158.317,85.788,157.781,81.692,158.388Zm2.631-.712a65.149,65.149,0,0,1,15.3,1.723c.011-.261.035-.517.04-.778a78.216,78.216,0,0,0-11.594-1.09C86.7,157.521,85.457,157.574,84.323,157.676ZM55.368,125.633c.171,1.363.365,2.662.578,3.917a51.07,51.07,0,0,1,2.989,10.907c.029.062.057.136.084.2a34.093,34.093,0,0,0-.8-5.524A75.029,75.029,0,0,0,55.368,125.633ZM86.976,165.16a78.646,78.646,0,0,1,10.465,5.163c.1-.257.2-.508.292-.767-6.2-3.192-11.529-5.154-15.4-5.882A34.658,34.658,0,0,1,86.976,165.16Zm-11.3-40.905c-.231,1.1-.479,2.174-.734,3.231.506-.95,1.048-1.915,1.609-2.89C76.258,124.486,75.974,124.358,75.676,124.255Zm4.548,42.489c3.187,2.747,8.414,5.787,14.907,8.625.138-.242.284-.477.415-.723a80.127,80.127,0,0,1-11.03-5.062A37.738,37.738,0,0,1,80.225,166.744Zm-.917.083c-.1.165-.193.332-.3.5a33.9,33.9,0,0,1,5.493,3.4,78.679,78.679,0,0,1,8.739,7.673c.583-.833,1.121-1.7,1.633-2.578-6.862-3-12.3-6.22-15.472-9.139C79.375,166.727,79.338,166.775,79.307,166.826Zm1.378-2.972c-.024.068-.062.13-.086.2-.139.378-.272.758-.435,1.123a32.941,32.941,0,0,0,4.948,3.359,78.968,78.968,0,0,0,10.961,5.02c.437-.9.824-1.82,1.187-2.756a78.542,78.542,0,0,0-10.467-5.17A30.549,30.549,0,0,0,80.685,163.854Zm-12.546,29.22c.018.086.046.18.066.266.317-.039.64-.064.956-.11-.334-1.224-.631-2.42-.906-3.6C68.237,190.755,68.2,191.9,68.139,193.074Zm-7.365-16.958c.013-.244.055-.527.061-.76-.055-.009-.1-.031-.16-.042-.273-.051-.547-.1-.815-.167a34.219,34.219,0,0,1-1.5,6.152,79.673,79.673,0,0,1-4.668,10.816c.894.27,1.809.483,2.734.675.807-2.075,1.508-4.068,2.1-5.963.237-2.09.539-4.062.912-5.867A38.05,38.05,0,0,1,60.775,176.115Zm7.671-35.267c.13.033.268.051.4.088a29.43,29.43,0,0,0,1.714-3.455c.251-.793.532-1.613.877-2.492.174-.448.38-.914.574-1.372a84.586,84.586,0,0,0,2.552-9.764c-.936-.29-1.9-.516-2.868-.719-.738,7.46-2.132,13.621-3.937,17.522C67.991,140.707,68.215,140.788,68.446,140.848Zm-2.77-18.5c-.328-.017-.653-.046-.983-.053q.193,1.748.321,3.425C65.207,124.624,65.431,123.5,65.675,122.353ZM54.63,123.674c-.015-.039-.033-.077-.048-.114-.334.088-.673.163-1,.264.543,1.2,1.042,2.385,1.517,3.558C54.924,126.183,54.764,124.958,54.63,123.674Zm4.053,51.163c-.145-.046-.281-.112-.426-.163-.022-.007-.046-.009-.066-.017a34.06,34.06,0,0,0-2.655,5.033A79.876,79.876,0,0,0,51.63,191.38c.3.114.6.239.908.343a78.51,78.51,0,0,0,4.679-10.806A31.609,31.609,0,0,0,58.683,174.837Zm2.754-34.37c.455-.07.923-.1,1.391-.134.158-.011.312-.039.473-.046a31.676,31.676,0,0,0,.644-4.768c.013-.538.031-1.092.066-1.67,0-.053.011-.11.013-.161a81.6,81.6,0,0,0-.547-11.4,35.911,35.911,0,0,0-4.291.338c-.05,7.873.785,14.083,2.137,17.848C61.36,140.472,61.4,140.472,61.437,140.467Zm5.478.044c.048.007.092.022.139.029.068.013.141.011.211.024,1.782-3.825,3.183-10.038,3.924-17.533-.277-.055-.55-.119-.829-.169a78.588,78.588,0,0,0-2.945,11.449A31.826,31.826,0,0,0,66.916,140.511ZM79.973,169.2a62.656,62.656,0,0,1,12,10.807c.174-.22.374-.418.545-.642a78.145,78.145,0,0,0-8.726-7.682A35.64,35.64,0,0,0,79.973,169.2ZM66.226,134.113a79.408,79.408,0,0,1,2.926-11.436c-.978-.141-1.969-.233-2.969-.3-.416,1.945-.758,3.829-1.029,5.638.121,2.343.15,4.568.057,6.6a37.629,37.629,0,0,1-.576,5.135c.022.176.037.365.062.534h0c.336.009.673.018,1,.05A34.423,34.423,0,0,1,66.226,134.113Zm.312,41.993c-.04-.152-.077-.319-.119-.466-.387,3.772.064,9.15,1.3,15.391.04-1.262.048-2.479.039-3.673-.442-2.134-.782-4.174-.993-6.067A37.746,37.746,0,0,1,66.538,176.106Zm14.654-13.977c-.015.057-.024.117-.039.174,4.416.552,10.531,2.851,16.977,6.132.3-.982.534-1.993.741-3.013-7.447-.734-13.6-2.121-17.514-3.917C81.313,161.717,81.243,161.918,81.192,162.129Zm-.167-8.99c.119.417.244.829.33,1.257a33.1,33.1,0,0,0,5.937-.191,79.094,79.094,0,0,0,11.843-2.389c-.174-1.005-.394-1.993-.644-2.967-7.579.783-13.8,2.244-17.509,4.091C81,153.005,81.006,153.075,81.025,153.139Zm-1.992-4.521c.306.494.585,1.005.844,1.528l.026.044a32.515,32.515,0,0,0,5.732-1.721,79.519,79.519,0,0,0,10.79-5.363,35.476,35.476,0,0,0-2.293-4.242A79.937,79.937,0,0,1,84.25,146,35.738,35.738,0,0,1,79.032,148.618Zm2.565,7.359c.02.185.018.376.033.561.007.09.02.176.026.266a33.922,33.922,0,0,1,6.427-.479,78.765,78.765,0,0,1,11.59,1.073c-.017-1.042-.1-2.064-.207-3.081a70.818,70.818,0,0,1-14.537,1.86A26.9,26.9,0,0,1,81.6,155.978Zm16.764-7.627c-.07-.248-.123-.5-.2-.749a63.322,63.322,0,0,0-15.34,4.02A63.291,63.291,0,0,1,98.361,148.351Zm-18.232,2.312c.051.116.088.238.139.354.064.15.139.3.2.448,3.9-2.139,10.188-3.866,17.309-4.994-.338-.991-.73-1.952-1.149-2.9a79.869,79.869,0,0,1-10.81,5.368A33.583,33.583,0,0,1,80.129,150.662Zm3.624,4.985A67.143,67.143,0,0,0,99.407,153.8c-.031-.261-.051-.525-.088-.785A79.859,79.859,0,0,1,87.426,155.4C86.243,155.535,84.991,155.618,83.753,155.647ZM70.216,140.836c-.031.172-.073.354-.1.519.143.053.275.128.416.183.422.169.846.33,1.251.528a34.349,34.349,0,0,1,2.69-5.7,79.5,79.5,0,0,1,6.743-9.675,34.016,34.016,0,0,0-4.189-1.908q-1.448,2.5-2.638,4.884A51.966,51.966,0,0,1,70.216,140.836Zm1.558,33.009-.009.006c.848,4.159,3.4,10,7.194,16.459.279-.13.565-.248.84-.383-3.89-5.961-6.831-11.731-7.972-16.107Zm3.308-30.172c-.059.11-.132.229-.189.339.077.059.139.132.215.194a18.1,18.1,0,0,1,1.539,1.389c.046.048.1.086.147.134,3.686-2.037,8.469-6.233,13.476-11.854A35.922,35.922,0,0,0,86.6,130.4q-2.056,1.849-3.855,3.669A51.607,51.607,0,0,1,75.082,143.672Zm16.925-4.646c.492-.394.98-.778,1.475-1.191-.059-.084-.125-.161-.183-.244-6.231,3.136-10.961,6.291-13.845,9A57.044,57.044,0,0,1,92.007,139.026Zm-12.265,7.946a35.615,35.615,0,0,0,3.891-2.005,70.459,70.459,0,0,0,6.513-4.48A52.759,52.759,0,0,0,79.742,146.973Zm-6.06,25.76c-.264.174-.521.361-.8.521.963,3.932,3.658,9.594,7.983,16.157.859-.462,1.682-.974,2.493-1.506-3.068-6.944-6.363-12.417-9.256-15.419C73.972,172.578,73.82,172.642,73.682,172.732Zm5.614,3a34.368,34.368,0,0,1-3.336-4.743l0,0c-.176.161-.349.328-.532.483a34.083,34.083,0,0,1,4.157,4.913,79,79,0,0,1,5.939,10c.805-.611,1.58-1.26,2.332-1.93A80.227,80.227,0,0,1,79.3,175.73Zm-3.934-2.594c2.717,3.169,5.664,8.212,8.432,14.48.248-.169.5-.327.747-.5a78.139,78.139,0,0,0-5.939-10.03A34.838,34.838,0,0,0,75.363,173.136Zm1.262-2.046a33.936,33.936,0,0,0,3.06,4.321,79.753,79.753,0,0,0,8.544,8.7c.218-.2.444-.387.655-.591C83.545,179.214,79.12,174.811,76.625,171.09Zm-3.75-28.482-.011.033c.332.191.664.383.982.6a28.148,28.148,0,0,0,2.49-2.5c.536-.758,1.125-1.541,1.8-2.367.372-.455.783-.919,1.191-1.383a85.063,85.063,0,0,0,5.234-8.176c-.747-.528-1.519-1.016-2.308-1.486-.229.284-.438.565-.662.851a77.648,77.648,0,0,1-5.157,9.711A33.471,33.471,0,0,1,72.875,142.608Zm2.644-5.64a35.353,35.353,0,0,0-2.143,4.3,37.014,37.014,0,0,0,2.636-3.657,72.6,72.6,0,0,0,4.185-7.636A71.2,71.2,0,0,0,75.519,136.968Zm1.609,9.128c.037.04.068.086.1.128.145.163.308.31.448.481,3.06-3.235,8.5-6.809,14.9-10.073-.62-.829-1.288-1.62-1.976-2.391C85.626,139.836,80.876,144.011,77.128,146.1ZM86.2,130.079c-.231-.183-.451-.382-.688-.56-.527.919-1.062,1.809-1.6,2.682C84.65,131.5,85.415,130.789,86.2,130.079Zm-8.113,38.575c-.077.1-.174.189-.255.292-.224.281-.44.572-.683.84,2.123,3.436,6.429,7.985,12.562,12.889.688-.714,1.3-1.5,1.923-2.27C86.575,174.761,81.757,170.593,78.089,168.654Zm-30.524-17.21c.051-.139.1-.281.152-.416a28.047,28.047,0,0,1-2.712-1.02,28.827,28.827,0,0,1,2.545,1.466ZM32.977,174.6c-.13.086-.264.176-.394.264.437.813.914,1.6,1.413,2.372a81.176,81.176,0,0,1,9.454-6.821A80.441,80.441,0,0,1,32.977,174.6Zm22.182-.143c.13-.328.259-.657.367-.967-.088-.048-.163-.116-.25-.165-.169-.1-.339-.191-.506-.294a34.443,34.443,0,0,1-3.321,5.339,79,79,0,0,1-7.8,8.867c.761.53,1.55,1.02,2.352,1.492,1.492-1.829,2.868-3.631,4.091-5.378A50.9,50.9,0,0,1,55.159,174.457Zm-8.7-14.326c-.035-.284-.035-.58-.059-.868-.009-.139-.037-.273-.042-.413a33.566,33.566,0,0,0-5.66-.692,79.563,79.563,0,0,0-12.335.536c.018.9.084,1.774.171,2.649C36.089,161.772,42.453,161.333,46.457,160.131Zm6.4,11.559c-.178-.145-.339-.31-.512-.461-.037-.031-.075-.057-.112-.088a33.262,33.262,0,0,0-4.563,3.559,79.5,79.5,0,0,0-8.289,9.036c.67.64,1.407,1.207,2.126,1.791C45.5,179.273,49.491,174.407,52.854,171.69Zm.886.662c-.1-.073-.2-.163-.3-.239-.061-.046-.13-.081-.191-.127-3.317,2.669-7.346,7.568-11.362,13.863.266.211.506.453.78.657a78.362,78.362,0,0,0,7.81-8.853A31.846,31.846,0,0,0,53.74,172.352Zm-16.056,9.641c.275.3.539.609.824.9.949-1.187,1.9-2.3,2.842-3.385Q39.6,180.756,37.685,181.994Zm8.878-21.165c-.006-.039-.006-.079-.011-.117s-.017-.07-.022-.1a46.112,46.112,0,0,1-12.588,1.415c-1.692,0-3.5-.072-5.354-.174.042.374.075.75.128,1.123a79.13,79.13,0,0,0,11.88-.734A32.232,32.232,0,0,0,46.563,160.829Zm-17.257,3.358c-.13,0-.273-.011-.405-.013.167.947.38,1.873.618,2.791a81.813,81.813,0,0,1,10.77-3.475A79.449,79.449,0,0,1,29.306,164.186Zm13.515,3.506a39.756,39.756,0,0,1,4.356-1.66c.29-.18.574-.36.837-.541-.048-.1-.075-.215-.123-.319a17.29,17.29,0,0,1-.71-1.866c-.046-.139-.116-.266-.156-.407-4.253.207-10.408,1.822-17.362,4.556a35.236,35.236,0,0,0,1.673,4.723c2.343-.618,4.545-1.281,6.565-1.976C39.6,169.248,41.251,168.4,42.82,167.692Zm-11.274,4.954c.156.343.3.694.464,1.031.114-.035.228-.07.339-.106,1.171-.765,2.321-1.473,3.46-2.152Q33.773,172.057,31.546,172.646Zm15.309,1.165a39.205,39.205,0,0,1,3.6-2.906c.237-.281.47-.563.677-.833-.055-.057-.1-.125-.149-.184a17.109,17.109,0,0,1-1.253-1.539c-.1-.128-.211-.24-.3-.371a33.814,33.814,0,0,0-5.091,2.5,80.092,80.092,0,0,0-10.054,7.181,35.821,35.821,0,0,0,3.06,3.961c2-1.288,3.879-2.587,5.594-3.882C44.266,176.3,45.578,174.974,46.855,173.811Zm19.109,1.732c-.143.015-.292.013-.437.026-.061.005-.121.015-.183.02.824,4.381.519,10.9-.609,18.017.971-.02,1.926-.1,2.875-.2.006-.092.018-.191.024-.283C66.066,185.948,65.5,179.794,65.963,175.543Zm3.6-.787c-.1.033-.209.053-.314.086s-.222.059-.332.09c-.38.112-.758.231-1.149.316a33.019,33.019,0,0,0,.194,5.912,79.2,79.2,0,0,0,2.4,11.887,35.332,35.332,0,0,0,4.2-.993A78.219,78.219,0,0,0,72,180.618,31.011,31.011,0,0,0,69.561,174.756ZM58.714,135.021a33.807,33.807,0,0,1,.815,5.825c.209-.055.416-.114.627-.161-1.466-4.233-2.163-10.706-2.152-17.876-.976.165-1.937.374-2.89.609.006.048.007.1.013.145A79.914,79.914,0,0,1,58.714,135.021Zm5.3,40.635c-.488,0-.971-.029-1.448-.073-.1-.009-.211-.005-.314-.017a33.174,33.174,0,0,0-1.627,5.636,79.3,79.3,0,0,0-1.391,12.082,35.814,35.814,0,0,0,4.306.334c1.277-7.8,1.4-14.071.629-17.971C64.116,175.648,64.064,175.657,64.011,175.657ZM54.5,143.039c.039-.026.083-.044.123-.068.117-.072.231-.15.35-.22a31.685,31.685,0,0,1-2.416-3.8A32.3,32.3,0,0,1,54.5,143.039ZM58.032,193.1c.066-1.361.161-2.677.273-3.967-.416,1.218-.87,2.468-1.369,3.752C57.3,192.96,57.663,193.041,58.032,193.1Zm-6.253-55.645a79.631,79.631,0,0,1-4.387-11.074c-.871.461-1.71.969-2.534,1.5a76.152,76.152,0,0,1,7.484,10.658C52.15,138.177,51.959,137.816,51.779,137.458Zm-5.341,51.521c.347.2.688.4,1.042.587q.784-2.061,1.616-3.989Q47.856,187.242,46.438,188.979Zm11.263-14.5c-.09-.033-.172-.079-.261-.116-.189-.077-.385-.136-.571-.216-2.6,3.121-5.576,8.614-8.324,15.935.851.411,1.725.778,2.611,1.123a80.151,80.151,0,0,1,3.919-11.713A34.753,34.753,0,0,1,57.7,174.477Zm13.515-.374c-.161.075-.319.156-.484.224a34.1,34.1,0,0,1,2.42,5.928,79.048,79.048,0,0,1,2.567,11.383c.947-.328,1.868-.71,2.776-1.115-3.78-6.434-6.3-12.228-7.174-16.459C71.288,174.079,71.251,174.086,71.216,174.1Zm-32.787-41c-.672.692-1.3,1.424-1.91,2.172A80.23,80.23,0,0,1,46,142.252,79.823,79.823,0,0,1,38.43,133.1Zm11.524,14.129c.02-.028.042-.053.064-.079s.028-.046.042-.066c-2.637-3.323-7.539-7.372-13.858-11.412-.237.3-.481.587-.708.89C41.644,140.076,46.886,143.854,49.954,147.228Zm-1.369,2.059c.075-.132.174-.246.251-.374.141-.24.262-.492.415-.723-2.714-3.062-7.678-6.84-14.467-10.678-.517.739-1,1.5-1.466,2.281a78.688,78.688,0,0,0,9.623,6.822A31.224,31.224,0,0,0,48.585,149.286Zm-.33.635c.029-.055.05-.114.077-.169a32.671,32.671,0,0,1-5.644-2.7,79.132,79.132,0,0,1-9.625-6.816c-.182.314-.372.618-.543.938,6.335,4.673,11.852,7.662,15.707,8.8Zm2.383-3.537.044-.053a27,27,0,0,1-2.139-1.688c.683.7,1.293,1.385,1.818,2.042C50.447,146.58,50.548,146.487,50.638,146.384Zm3.378-3.031c.026-.016.044-.04.07-.057-1.471-3.969-4.9-9.339-9.654-15.133-.3.2-.609.387-.9.594,4.765,5.245,8.583,10.46,10.456,14.615Zm2.024-1.189c.064-.033.134-.055.2-.086.372-.185.761-.339,1.149-.5.167-.066.323-.15.492-.213-.383-4.066-2.176-10.047-5.412-17.155a35.131,35.131,0,0,0-3.974,1.644,78.847,78.847,0,0,0,4.367,11.065A32.573,32.573,0,0,0,56.039,142.164ZM52,144.978c.061-.057.132-.1.193-.156.277-.246.543-.5.835-.734-1.629-3.748-5.179-8.875-10.447-14.623-.739.556-1.42,1.182-2.115,1.791C44.578,137.619,48.68,142.489,52,144.978Zm-.49.444c.033-.033.072-.059.1-.092l.017-.018c-3.38-2.55-7.46-7.383-11.557-13.724-.251.226-.53.42-.774.653a78.63,78.63,0,0,0,7.594,9.2A32.184,32.184,0,0,0,51.509,145.422Zm-6.965,17.241c.827-.112,1.626-.2,2.358-.237-.015-.055-.02-.112-.035-.169-.018-.075-.048-.147-.066-.224C46.086,162.282,45.314,162.472,44.545,162.663Zm2.009-7.482c.007-.048.009-.1.017-.147A32.991,32.991,0,0,1,40.4,154.2a78.983,78.983,0,0,1-11.285-3.517c-.073.365-.156.728-.22,1.1,7.464,2.481,13.626,3.616,17.639,3.508C46.537,155.251,46.548,155.218,46.554,155.181Zm-5.8,1.772a36.654,36.654,0,0,1,5.576.642c0-.033,0-.066,0-.1l.006-.081a33.778,33.778,0,0,0-5.645-.982,79.81,79.81,0,0,0-12.289-.1c-.018.383-.051.765-.057,1.154A80.561,80.561,0,0,1,40.752,156.954Zm5.895-2.429c.083-.415.183-.822.3-1.226A33.644,33.644,0,0,0,41.8,150.9,79.641,79.641,0,0,0,29.861,147.6c-.255.846-.462,1.71-.648,2.583a78.873,78.873,0,0,0,11.293,3.528A31.857,31.857,0,0,0,46.647,154.524Zm-.284,2.372h0c.009-.149.009-.3.022-.444-.125,0-.24.011-.369.011-.64,0-1.325-.035-2.033-.088C44.84,156.528,45.638,156.7,46.363,156.9Zm-6.244-1.009a81.793,81.793,0,0,1-11.406-2.93c-.132.945-.22,1.9-.284,2.864A81.2,81.2,0,0,1,40.119,155.888Zm5.9,11.8c-.859.317-1.747.67-2.7,1.1-1.732.785-3.57,1.743-5.466,2.824A54.045,54.045,0,0,0,46.016,167.69ZM32,142.248c-.424.866-.8,1.754-1.161,2.657a80.637,80.637,0,0,1,11.394,3.8A80.457,80.457,0,0,1,32,142.248ZM46.921,168.5c.769-.374,1.515-.71,2.215-.976-.051-.081-.092-.171-.143-.251-.024-.04-.055-.075-.079-.116C48.319,167.61,47.638,168.057,46.921,168.5Zm.4-16.4c.015-.044.031-.086.046-.128l.005-.013a33.621,33.621,0,0,0-5.1-2.7,79.766,79.766,0,0,0-11.616-3.888c-.134.356-.281.706-.4,1.068a80.7,80.7,0,0,1,11.97,3.332A36.72,36.72,0,0,1,47.321,152.1Z" transform="translate(-28.346 -122.292)" fill="url(#a)"/><g transform="translate(95.592 36.384)"><path d="M81.912,172.753V142.311h21.657v2.044h-19.4V156.4h17.439v2.042H84.172v12.263h19.613v2.046Z" transform="translate(-81.912 -141.878)" fill="#fff"/><path d="M111.464,160.664v12.089H109.2V160.706L96.157,142.311h2.827l11.394,16.353,11.436-16.353h2.7Z" transform="translate(-70.021 -141.878)" fill="#fff"/><path d="M114.467,172.753V142.311h21.657v2.044h-19.4V156.4h17.439v2.042H116.727v12.263h19.613v2.046Z" transform="translate(-54.738 -141.878)" fill="#fff"/><path d="M136.675,172.753V142.311h2.262v30.442Z" transform="translate(-36.2 -141.878)" fill="#fff"/><path d="M166.3,172.753,144.865,145.7v27.049h-2.174V142.311h2.13l21,26.486V142.311H168v30.442Z" transform="translate(-31.178 -141.878)" fill="#fff"/><path d="M181.58,168.447a7.829,7.829,0,0,1-2.088,2.635,9.879,9.879,0,0,1-3.174,1.7,13.046,13.046,0,0,1-4.066.607,17.1,17.1,0,0,1-6.589-1.216,20.224,20.224,0,0,1-5.675-3.653l1.479-1.7a21.676,21.676,0,0,0,2.5,2.026,13.838,13.838,0,0,0,5.284,2.215,16.019,16.019,0,0,0,3.13.283,10.343,10.343,0,0,0,3.132-.455,7.416,7.416,0,0,0,2.435-1.26,5.886,5.886,0,0,0,1.567-1.915,5.267,5.267,0,0,0,.565-2.413v-.084a6.03,6.03,0,0,0-.371-2.178,4.17,4.17,0,0,0-1.349-1.738,9.762,9.762,0,0,0-2.631-1.415,27.323,27.323,0,0,0-4.26-1.15,29.971,29.971,0,0,1-4.7-1.328,11.527,11.527,0,0,1-3.2-1.783,6.105,6.105,0,0,1-1.805-2.367,7.919,7.919,0,0,1-.565-3.09v-.086a6.844,6.844,0,0,1,.739-3.152,7.934,7.934,0,0,1,2.044-2.545,9.563,9.563,0,0,1,3.088-1.7,12,12,0,0,1,3.914-.609,16.129,16.129,0,0,1,5.717.914,17.165,17.165,0,0,1,4.719,2.781l-1.435,1.783a13.041,13.041,0,0,0-9.087-3.436,9.673,9.673,0,0,0-3.068.457,7.584,7.584,0,0,0-2.347,1.238,5.5,5.5,0,0,0-1.5,1.826,4.9,4.9,0,0,0-.523,2.22v.088a6.177,6.177,0,0,0,.371,2.194,4.252,4.252,0,0,0,1.349,1.783,9.529,9.529,0,0,0,2.717,1.459,31.27,31.27,0,0,0,4.436,1.216q5.3,1.09,7.653,3.066a6.606,6.606,0,0,1,2.348,5.326v.088A7.51,7.51,0,0,1,181.58,168.447Z" transform="translate(-16.739 -142.075)" fill="#fff"/><path d="M187.3,144.355v28.4h-2.262v-28.4H174.423v-2.044h23.483v2.044Z" transform="translate(-4.691 -141.878)" fill="#fff"/><path d="M190.434,172.753V142.311H192.7v30.442Z" transform="translate(8.674 -141.878)" fill="#fff"/><path d="M207.739,144.355v28.4h-2.26v-28.4H194.867v-2.044H218.35v2.044Z" transform="translate(12.374 -141.878)" fill="#fff"/><path d="M234.712,165.6a11.573,11.573,0,0,1-2.565,4.192,10.706,10.706,0,0,1-3.935,2.567,14.125,14.125,0,0,1-5.066.87,14.374,14.374,0,0,1-5.023-.846,10.876,10.876,0,0,1-3.958-2.523,11.342,11.342,0,0,1-2.587-4.108,16.063,16.063,0,0,1-.914-5.656V142.311h2.262v17.571q0,5.435,2.717,8.368a9.825,9.825,0,0,0,7.588,2.937,11.884,11.884,0,0,0,4.174-.7,8.366,8.366,0,0,0,3.2-2.088,9.4,9.4,0,0,0,2.044-3.479,14.867,14.867,0,0,0,.716-4.827V142.311h2.262v17.525A16.754,16.754,0,0,1,234.712,165.6Z" transform="translate(25.56 -141.878)" fill="#fff"/><path d="M240.14,144.355v28.4h-2.262v-28.4h-10.61v-2.044h23.483v2.044Z" transform="translate(39.42 -141.878)" fill="#fff"/><path d="M243.2,172.753V142.311h21.655v2.044H245.456V156.4H262.9v2.042H245.456v12.263H265.07v2.046Z" transform="translate(52.716 -141.878)" fill="#fff"/></g><g transform="translate(95.592 3.045)" opacity="0.81"><path d="M84.387,129.661a2.2,2.2,0,0,0,.631.916,4.529,4.529,0,0,0,1.259.749,13.121,13.121,0,0,0,2.066.637,8.424,8.424,0,0,1,3.746,1.8,4.184,4.184,0,0,1,1.205,3.176A5.3,5.3,0,0,1,92.909,139a4.5,4.5,0,0,1-2.7,2.578,6.034,6.034,0,0,1-2.086.35,8.05,8.05,0,0,1-3.334-.679,9.336,9.336,0,0,1-2.879-2.1l1.064-1.448a8.938,8.938,0,0,0,2.411,1.86,6.164,6.164,0,0,0,2.8.613,3.574,3.574,0,0,0,2.464-.824,2.783,2.783,0,0,0,.925-2.18,3.323,3.323,0,0,0-.174-1.114,2.2,2.2,0,0,0-.611-.888,4.148,4.148,0,0,0-1.207-.725,13.453,13.453,0,0,0-1.972-.626,14.128,14.128,0,0,1-2.275-.752,5.52,5.52,0,0,1-1.6-1.026,3.762,3.762,0,0,1-.936-1.4,5.374,5.374,0,0,1-.3-1.9,4.921,4.921,0,0,1,.369-1.928A4.429,4.429,0,0,1,83.91,125.3a4.979,4.979,0,0,1,1.585-1,5.4,5.4,0,0,1,2-.365,7.424,7.424,0,0,1,2.921.532,8.576,8.576,0,0,1,2.422,1.594l-1,1.523a7.358,7.358,0,0,0-2.139-1.449,5.766,5.766,0,0,0-2.249-.45,3.719,3.719,0,0,0-1.338.228,3.252,3.252,0,0,0-1.02.6,2.509,2.509,0,0,0-.651.9,2.807,2.807,0,0,0-.229,1.128A3.413,3.413,0,0,0,84.387,129.661Z" transform="translate(-81.912 -123.881)" fill="#fff"/><path d="M110.666,141.614H108.82l-1.783-4.622H98.76l-1.8,4.622H95.2L102.127,124h1.607Zm-7.757-15.291-3.475,8.919h6.93Z" transform="translate(-70.823 -123.823)" fill="#fff"/><path d="M122.443,124.068h1.673v17.49h-1.369l-9.819-14.342v14.342h-1.673v-17.49h1.607l9.581,14.017Z" transform="translate(-57.419 -123.767)" fill="#fff"/><path d="M146.339,125.894h-9.212v6.244h8.234v1.8h-8.234v7.621h-1.715v-17.49h10.928Z" transform="translate(-37.255 -123.767)" fill="#fff"/><path d="M159.562,141.558l-4.409-6.8h-4.346v6.8h-1.715v-17.49h6.539a6.534,6.534,0,0,1,2.27.376,4.91,4.91,0,0,1,1.728,1.064,4.7,4.7,0,0,1,1.108,1.648,5.644,5.644,0,0,1,.391,2.139,5.843,5.843,0,0,1-.3,1.959,4.634,4.634,0,0,1-.857,1.5,4.912,4.912,0,0,1-1.316,1.06,5.61,5.61,0,0,1-1.651.6l4.671,7.139Zm-1.176-14.749a4.161,4.161,0,0,0-2.875-.916h-4.7v7.121h4.684a4.8,4.8,0,0,0,1.569-.25,3.741,3.741,0,0,0,1.24-.716,3.223,3.223,0,0,0,.816-1.141,3.815,3.815,0,0,0,.294-1.532A3.258,3.258,0,0,0,158.386,126.809Z" transform="translate(-25.836 -123.767)" fill="#fff"/><path d="M178.691,141.614h-1.846l-1.783-4.622h-8.278l-1.8,4.622h-1.76L170.152,124h1.607Zm-7.757-15.291-3.477,8.919h6.932Z" transform="translate(-14.041 -123.823)" fill="#fff"/><path d="M190.467,124.068h1.673v17.49h-1.369l-9.819-14.342v14.342h-1.673v-17.49h1.607l9.581,14.017Z" transform="translate(-0.637 -123.767)" fill="#fff"/><path d="M206.82,140.185a7.69,7.69,0,0,1-1.38.961,7.2,7.2,0,0,1-1.585.622,7.286,7.286,0,0,1-1.892.227,6.681,6.681,0,0,1-3.042-.7,7.571,7.571,0,0,1-2.413-1.914,8.932,8.932,0,0,1-1.6-2.86,11.164,11.164,0,0,1,0-7.069,9.277,9.277,0,0,1,1.6-2.884,7.529,7.529,0,0,1,2.435-1.949,6.729,6.729,0,0,1,3.086-.716,8.032,8.032,0,0,1,1.877.2,7.276,7.276,0,0,1,1.556.563,6.9,6.9,0,0,1,1.325.873,12.176,12.176,0,0,1,1.172,1.138l-1.172,1.448a9.788,9.788,0,0,0-2.1-1.723,5.1,5.1,0,0,0-2.682-.675,5.031,5.031,0,0,0-2.336.552A5.719,5.719,0,0,0,197.8,127.8a7.263,7.263,0,0,0-1.24,2.284,8.764,8.764,0,0,0-.444,2.836,8.864,8.864,0,0,0,.444,2.847,7.209,7.209,0,0,0,1.24,2.3,5.914,5.914,0,0,0,1.868,1.539,4.972,4.972,0,0,0,2.336.561,5.225,5.225,0,0,0,2.693-.661,9.579,9.579,0,0,0,2.216-1.864l1.128,1.277A11.454,11.454,0,0,1,206.82,140.185Z" transform="translate(11.933 -123.904)" fill="#fff"/><path d="M211.252,124.068v17.49h-1.715v-17.49Z" transform="translate(24.619 -123.767)" fill="#fff"/><path d="M220.871,129.661a2.22,2.22,0,0,0,.631.916,4.529,4.529,0,0,0,1.259.749,13.121,13.121,0,0,0,2.066.637,8.424,8.424,0,0,1,3.747,1.8,4.184,4.184,0,0,1,1.205,3.176,5.264,5.264,0,0,1-.385,2.055,4.5,4.5,0,0,1-2.7,2.578,6.034,6.034,0,0,1-2.086.35,8.051,8.051,0,0,1-3.334-.679,9.337,9.337,0,0,1-2.879-2.1l1.064-1.448a8.967,8.967,0,0,0,2.411,1.86,6.169,6.169,0,0,0,2.8.613,3.574,3.574,0,0,0,2.464-.824,2.778,2.778,0,0,0,.925-2.18,3.324,3.324,0,0,0-.174-1.114,2.2,2.2,0,0,0-.611-.888,4.125,4.125,0,0,0-1.207-.725,13.5,13.5,0,0,0-1.971-.626,14.153,14.153,0,0,1-2.277-.752,5.52,5.52,0,0,1-1.6-1.026,3.736,3.736,0,0,1-.934-1.4,5.331,5.331,0,0,1-.306-1.9,4.921,4.921,0,0,1,.369-1.928,4.43,4.43,0,0,1,1.044-1.514,5,5,0,0,1,1.585-1,5.4,5.4,0,0,1,2-.365,7.424,7.424,0,0,1,2.921.532,8.576,8.576,0,0,1,2.422,1.594l-1,1.523a7.36,7.36,0,0,0-2.139-1.449,5.759,5.759,0,0,0-2.249-.45,3.7,3.7,0,0,0-1.336.228,3.241,3.241,0,0,0-1.022.6,2.51,2.51,0,0,0-.651.9,2.806,2.806,0,0,0-.227,1.128A3.417,3.417,0,0,0,220.871,129.661Z" transform="translate(32.014 -123.881)" fill="#fff"/><path d="M244.572,140.185a7.624,7.624,0,0,1-1.38.961,7.2,7.2,0,0,1-1.585.622,7.271,7.271,0,0,1-1.89.227,6.683,6.683,0,0,1-3.044-.7,7.545,7.545,0,0,1-2.411-1.914,8.934,8.934,0,0,1-1.6-2.86,11.131,11.131,0,0,1,0-7.069,9.279,9.279,0,0,1,1.6-2.884,7.491,7.491,0,0,1,2.435-1.949,6.717,6.717,0,0,1,3.084-.716,8.059,8.059,0,0,1,1.879.2,7.259,7.259,0,0,1,1.554.563,6.968,6.968,0,0,1,1.327.873,12.62,12.62,0,0,1,1.172,1.138l-1.172,1.448a9.878,9.878,0,0,0-2.1-1.723,5.111,5.111,0,0,0-2.684-.675,5.032,5.032,0,0,0-2.336.552,5.737,5.737,0,0,0-1.868,1.523,7.258,7.258,0,0,0-1.238,2.284,8.762,8.762,0,0,0-.446,2.836,8.862,8.862,0,0,0,.446,2.847,7.2,7.2,0,0,0,1.238,2.3,5.934,5.934,0,0,0,1.868,1.539,4.972,4.972,0,0,0,2.336.561,5.225,5.225,0,0,0,2.693-.661,9.54,9.54,0,0,0,2.216-1.864l1.13,1.277A11.464,11.464,0,0,1,244.572,140.185Z" transform="translate(43.445 -123.904)" fill="#fff"/><path d="M261.612,136.387a9.385,9.385,0,0,1-1.587,2.886,7.681,7.681,0,0,1-2.455,1.983,7.216,7.216,0,0,1-6.333.015,7.682,7.682,0,0,1-2.444-1.963,8.977,8.977,0,0,1-1.574-2.871,10.7,10.7,0,0,1-.554-3.462,10.522,10.522,0,0,1,.563-3.458,9.353,9.353,0,0,1,1.587-2.888,7.686,7.686,0,0,1,2.455-1.985,7.208,7.208,0,0,1,6.333-.013,7.65,7.65,0,0,1,2.444,1.961,9,9,0,0,1,1.574,2.871,10.7,10.7,0,0,1,.554,3.462A10.561,10.561,0,0,1,261.612,136.387Zm-1.662-6.234a7.128,7.128,0,0,0-1.249-2.3,6.1,6.1,0,0,0-1.9-1.549,5.074,5.074,0,0,0-2.4-.576,5.2,5.2,0,0,0-2.4.561,5.756,5.756,0,0,0-1.879,1.539,7.4,7.4,0,0,0-1.227,2.284,8.669,8.669,0,0,0-.446,2.811,8.769,8.769,0,0,0,.446,2.822,7.129,7.129,0,0,0,1.249,2.3,6.1,6.1,0,0,0,1.9,1.549,5.07,5.07,0,0,0,2.4.576,5.2,5.2,0,0,0,2.4-.561,5.733,5.733,0,0,0,1.877-1.539,7.41,7.41,0,0,0,1.229-2.284,8.668,8.668,0,0,0,.446-2.811A8.767,8.767,0,0,0,259.949,130.153Z" transform="translate(55.61 -123.904)" fill="#fff"/></g></g></g></svg>