<svg xmlns="http://www.w3.org/2000/svg" xmlns:xlink="http://www.w3.org/1999/xlink" width="268.673" height="45.973" viewBox="0 0 268.673 45.973"><defs><linearGradient id="a" x1="0.5" y1="1" x2="0.5" gradientUnits="objectBoundingBox"><stop offset="0.172" stop-color="#007fcd"/><stop offset="0.726" stop-color="#b1c91e"/><stop offset="1" stop-color="#f46e0f"/></linearGradient></defs><g transform="translate(-28.346 -122.292)"><path d="M73.868,149.769c.033-.175.073-.348.1-.524a41.871,41.871,0,0,1-10.728-1.706A40.813,40.813,0,0,0,73.868,149.769ZM62.73,145.558c0,.013,0,.026,0,.039-.009.315-.02.628-.054.935a36.948,36.948,0,0,0,11.415,1.958c.09-.642.147-1.294.186-1.95C69.475,145.512,65.37,145.166,62.73,145.558Zm1.7-.459a41.992,41.992,0,0,1,9.864,1.11c.007-.168.022-.333.026-.5a50.414,50.414,0,0,0-7.473-.7C65.96,145,65.157,145.033,64.426,145.1ZM45.763,124.445c.11.879.235,1.716.373,2.525A32.917,32.917,0,0,1,48.062,134c.019.04.037.088.054.127a21.974,21.974,0,0,0-.513-3.561A48.36,48.36,0,0,0,45.763,124.445Zm20.373,25.477a50.69,50.69,0,0,1,6.745,3.328c.061-.166.13-.328.188-.494a39.155,39.155,0,0,0-9.925-3.791A22.336,22.336,0,0,1,66.136,149.923Zm-7.283-26.365c-.149.71-.309,1.4-.473,2.083.326-.613.675-1.235,1.037-1.863C59.228,123.706,59.044,123.624,58.853,123.557Zm2.932,27.386a39.976,39.976,0,0,0,9.608,5.559c.089-.156.183-.307.267-.466a51.65,51.65,0,0,1-7.11-3.263A24.324,24.324,0,0,1,61.784,150.943Zm-.591.053c-.064.106-.124.214-.19.319a21.852,21.852,0,0,1,3.541,2.189,50.713,50.713,0,0,1,5.633,4.945c.376-.537.723-1.094,1.052-1.662a37.936,37.936,0,0,1-9.973-5.89C61.237,150.933,61.213,150.963,61.193,151Zm.888-1.916c-.015.044-.04.084-.056.128-.09.244-.175.488-.28.724a21.232,21.232,0,0,0,3.189,2.165A50.9,50.9,0,0,0,72,155.333c.281-.578.531-1.173.765-1.776a50.623,50.623,0,0,0-6.747-3.332A19.69,19.69,0,0,0,62.081,149.081Zm-8.086,18.834c.012.056.03.116.043.171.2-.025.413-.041.616-.071-.215-.789-.407-1.56-.584-2.319C54.057,166.42,54.034,167.157,53.995,167.914Zm-4.747-10.93c.008-.157.035-.339.039-.49-.035-.006-.067-.02-.1-.027-.176-.033-.352-.066-.525-.108a22.056,22.056,0,0,1-.966,3.965,51.354,51.354,0,0,1-3.008,6.971c.576.174,1.166.311,1.762.435.52-1.337.972-2.622,1.354-3.843.153-1.347.348-2.618.588-3.782A24.525,24.525,0,0,1,49.248,156.984Zm4.944-22.731c.084.021.173.033.255.057a18.968,18.968,0,0,0,1.1-2.227c.162-.511.343-1.039.565-1.606.112-.289.245-.589.37-.885a54.519,54.519,0,0,0,1.645-6.294c-.6-.187-1.223-.332-1.848-.464a37.559,37.559,0,0,1-2.538,11.294C53.9,134.161,54.043,134.213,54.192,134.252Zm-1.786-11.921c-.212-.011-.421-.03-.634-.034q.124,1.126.207,2.208C52.1,123.8,52.249,123.068,52.407,122.331Zm-7.119.851c-.009-.025-.021-.05-.031-.073-.215.057-.434.105-.647.17.35.775.672,1.537.978,2.293C45.477,124.8,45.374,124.01,45.287,123.182ZM47.9,156.16c-.093-.03-.181-.072-.274-.105-.014,0-.03-.006-.043-.011a21.954,21.954,0,0,0-1.711,3.244,51.484,51.484,0,0,0-2.518,7.535c.2.073.387.154.585.221a50.6,50.6,0,0,0,3.016-6.965A20.374,20.374,0,0,0,47.9,156.16Zm1.775-22.153c.293-.045.595-.065.9-.086.1-.007.2-.025.305-.03a20.416,20.416,0,0,0,.415-3.074c.008-.347.02-.7.043-1.076,0-.034.007-.071.008-.1a52.592,52.592,0,0,0-.352-7.345,23.145,23.145,0,0,0-2.766.218c-.032,5.074.506,9.077,1.378,11.5C49.625,134.01,49.65,134.01,49.675,134.007Zm3.531.028c.031,0,.059.014.09.019s.091.007.136.015a37.655,37.655,0,0,0,2.53-11.3c-.179-.035-.355-.077-.535-.109a50.654,50.654,0,0,0-1.9,7.379A20.512,20.512,0,0,0,53.206,134.035Zm8.416,18.494a40.385,40.385,0,0,1,7.732,6.965c.112-.142.241-.27.351-.414a50.369,50.369,0,0,0-5.624-4.951A22.969,22.969,0,0,0,61.622,152.529Zm-8.861-22.618a51.182,51.182,0,0,1,1.886-7.371c-.63-.091-1.269-.15-1.913-.192-.268,1.254-.488,2.468-.663,3.634.078,1.51.1,2.945.037,4.254a24.254,24.254,0,0,1-.371,3.31c.014.114.024.235.04.344h0c.216.006.434.012.647.032A22.188,22.188,0,0,1,52.761,129.911Zm.2,27.067c-.026-.1-.05-.206-.077-.3a36.029,36.029,0,0,0,.836,9.921c.026-.814.031-1.6.025-2.368-.285-1.375-.5-2.69-.64-3.911A24.329,24.329,0,0,1,52.962,156.978Zm9.445-9.009c-.009.037-.015.076-.025.112,2.846.356,6.788,1.838,10.942,3.952.194-.633.344-1.284.478-1.942a37.793,37.793,0,0,1-11.289-2.525C62.486,147.7,62.441,147.833,62.407,147.969Zm-.108-5.795c.077.268.157.535.213.81a21.333,21.333,0,0,0,3.827-.123,50.98,50.98,0,0,0,7.633-1.54c-.112-.648-.254-1.284-.415-1.912-4.885.5-8.9,1.446-11.285,2.637C62.284,142.088,62.288,142.133,62.3,142.174Zm-1.284-2.914c.2.318.377.648.544.985l.017.028a20.958,20.958,0,0,0,3.694-1.109,51.253,51.253,0,0,0,6.955-3.457,22.867,22.867,0,0,0-1.478-2.734,51.526,51.526,0,0,1-6.368,4.6A23.036,23.036,0,0,1,61.016,139.261ZM62.669,144c.013.119.012.242.021.362,0,.058.013.114.017.171a21.862,21.862,0,0,1,4.143-.309,50.767,50.767,0,0,1,7.47.692c-.011-.672-.064-1.33-.134-1.986a45.646,45.646,0,0,1-9.369,1.2A17.341,17.341,0,0,1,62.669,144Zm10.805-4.916c-.045-.16-.079-.324-.128-.482a40.814,40.814,0,0,0-9.887,2.591A40.793,40.793,0,0,1,73.474,139.088Zm-11.751,1.49c.033.074.057.154.09.228.041.1.09.19.129.289,2.516-1.379,6.567-2.492,11.156-3.219-.218-.639-.471-1.258-.74-1.87a51.48,51.48,0,0,1-6.968,3.46A21.646,21.646,0,0,1,61.723,140.578Zm2.336,3.213a43.278,43.278,0,0,0,10.09-1.19c-.02-.168-.033-.338-.057-.506a51.472,51.472,0,0,1-7.665,1.539C65.663,143.719,64.857,143.772,64.058,143.791Zm-8.725-9.547c-.02.111-.047.228-.065.335.092.034.177.083.268.118.272.109.545.213.807.341a22.139,22.139,0,0,1,1.734-3.675,51.24,51.24,0,0,1,4.346-6.236,21.922,21.922,0,0,0-2.7-1.23q-.933,1.611-1.7,3.148A33.5,33.5,0,0,1,55.333,134.244Zm1,21.276-.006,0a38.482,38.482,0,0,0,4.637,10.609c.18-.084.364-.16.542-.247A39.166,39.166,0,0,1,56.372,155.5Zm2.132-19.447c-.038.071-.085.148-.122.219.05.038.09.085.138.125a11.668,11.668,0,0,1,.992.9c.03.031.065.056.095.086a37.519,37.519,0,0,0,8.686-7.641,23.154,23.154,0,0,0-2.367-2.239q-1.325,1.192-2.485,2.365A33.263,33.263,0,0,1,58.47,136.072Zm10.909-2.994c.317-.254.632-.5.951-.767-.038-.054-.08-.1-.118-.157a39.485,39.485,0,0,0-8.924,5.8A36.768,36.768,0,0,1,69.379,133.078ZM61.473,138.2a22.956,22.956,0,0,0,2.508-1.293,45.415,45.415,0,0,0,4.2-2.888A34.006,34.006,0,0,0,61.473,138.2Zm-3.906,16.6c-.17.112-.336.233-.513.336A37.024,37.024,0,0,0,62.2,165.553c.553-.3,1.084-.628,1.607-.971-1.977-4.476-4.1-8-5.966-9.938C57.754,154.7,57.656,154.745,57.567,154.8Zm3.619,1.932a22.152,22.152,0,0,1-2.15-3.057h0c-.114.1-.225.212-.343.311a21.969,21.969,0,0,1,2.68,3.167A50.921,50.921,0,0,1,65.2,163.6c.519-.394,1.018-.812,1.5-1.244A51.71,51.71,0,0,1,61.186,156.735Zm-2.535-1.672a39.419,39.419,0,0,1,5.435,9.333c.16-.109.324-.21.481-.322a50.364,50.364,0,0,0-3.828-6.465A22.454,22.454,0,0,0,58.65,155.063Zm.814-1.319a21.872,21.872,0,0,0,1.973,2.785,51.405,51.405,0,0,0,5.507,5.608c.141-.128.286-.25.422-.381A40.344,40.344,0,0,1,59.464,153.745Zm-2.417-18.358-.007.021c.214.123.428.247.633.384a18.141,18.141,0,0,0,1.6-1.613c.345-.488.725-.993,1.162-1.525.24-.293.5-.592.767-.892a54.827,54.827,0,0,0,3.374-5.27c-.481-.341-.979-.655-1.488-.958-.148.183-.283.364-.427.549a50.047,50.047,0,0,1-3.324,6.259A21.573,21.573,0,0,1,57.047,135.387Zm1.7-3.635a22.786,22.786,0,0,0-1.381,2.773,23.859,23.859,0,0,0,1.7-2.357,46.8,46.8,0,0,0,2.7-4.922A45.894,45.894,0,0,0,58.751,131.751Zm1.037,5.883c.024.026.044.056.067.083.093.105.2.2.289.31,1.973-2.085,5.476-4.389,9.606-6.492-.4-.535-.83-1.044-1.274-1.541A37.538,37.538,0,0,1,59.788,137.635Zm5.849-10.324c-.149-.118-.291-.246-.443-.361-.339.592-.685,1.166-1.03,1.729C64.637,128.225,65.13,127.768,65.637,127.311Zm-5.229,24.863c-.05.066-.112.122-.164.188-.144.181-.284.369-.44.542a36.933,36.933,0,0,0,8.1,8.308c.443-.46.837-.965,1.239-1.463C65.877,156.111,62.772,153.424,60.408,152.174ZM40.733,141.082c.033-.09.061-.181.1-.268a18.076,18.076,0,0,1-1.748-.658,18.579,18.579,0,0,1,1.64.945Zm-9.4,14.925-.254.17c.281.524.589,1.031.911,1.529a52.321,52.321,0,0,1,6.094-4.4A51.847,51.847,0,0,1,31.331,156.007Zm14.3-.092c.084-.212.167-.423.237-.623-.057-.031-.105-.075-.161-.106-.109-.064-.219-.123-.326-.189a22.2,22.2,0,0,1-2.14,3.441,50.917,50.917,0,0,1-5.031,5.715c.491.342,1,.658,1.516.961.961-1.179,1.848-2.34,2.637-3.466A32.8,32.8,0,0,1,45.628,155.915Zm-5.609-9.233c-.022-.183-.022-.374-.038-.559-.006-.09-.024-.176-.027-.266a21.636,21.636,0,0,0-3.648-.446,51.281,51.281,0,0,0-7.95.345c.012.577.054,1.144.11,1.708C33.336,147.738,37.439,147.456,40.019,146.681Zm4.124,7.45c-.115-.093-.219-.2-.33-.3-.024-.02-.048-.037-.072-.057a21.439,21.439,0,0,0-2.941,2.294,51.24,51.24,0,0,0-5.343,5.824c.432.413.907.778,1.371,1.154A38.716,38.716,0,0,1,44.143,154.131Zm.571.427c-.067-.047-.127-.105-.193-.154-.039-.03-.084-.052-.123-.082a38.772,38.772,0,0,0-7.324,8.935c.171.136.326.292.5.423a50.508,50.508,0,0,0,5.034-5.706A20.527,20.527,0,0,0,44.714,154.558Zm-10.349,6.214c.177.193.348.393.531.581.611-.765,1.223-1.484,1.832-2.182Q35.6,159.975,34.365,160.773Zm5.722-13.642c0-.025,0-.051-.007-.076s-.011-.045-.014-.067a29.721,29.721,0,0,1-8.114.912c-1.09,0-2.255-.046-3.451-.112.027.241.048.484.083.724a51,51,0,0,0,7.657-.473A20.775,20.775,0,0,0,40.088,147.131Zm-11.123,2.164c-.084,0-.176-.007-.261-.008.108.61.245,1.207.4,1.8a52.732,52.732,0,0,1,6.942-2.24A51.207,51.207,0,0,1,28.964,149.295Zm8.711,2.26a25.625,25.625,0,0,1,2.807-1.07c.187-.116.37-.232.539-.349-.031-.066-.048-.138-.079-.206a11.144,11.144,0,0,1-.458-1.2c-.03-.09-.075-.171-.1-.263A38.864,38.864,0,0,0,29.194,151.4a22.711,22.711,0,0,0,1.079,3.044c1.51-.4,2.929-.825,4.231-1.274C35.6,152.557,36.664,152.012,37.675,151.555Zm-7.267,3.193c.1.221.193.447.3.665.073-.022.147-.045.219-.069.754-.493,1.5-.95,2.23-1.387Q31.844,154.368,30.408,154.748Zm9.867.751a25.271,25.271,0,0,1,2.32-1.873c.153-.181.3-.363.436-.537-.035-.037-.061-.08-.1-.118a11.029,11.029,0,0,1-.808-.992c-.061-.083-.136-.155-.2-.239a21.8,21.8,0,0,0-3.282,1.608,51.622,51.622,0,0,0-6.48,4.629,23.086,23.086,0,0,0,1.973,2.553c1.289-.83,2.5-1.667,3.606-2.5C38.607,157.1,39.453,156.248,40.276,155.5Zm12.316,1.116c-.092.009-.188.008-.281.017l-.118.013c.531,2.824.335,7.023-.393,11.613.626-.013,1.242-.062,1.853-.127,0-.059.012-.123.015-.182A37.92,37.92,0,0,1,52.592,156.615Zm2.319-.507c-.065.021-.135.034-.2.056s-.143.038-.214.058c-.245.072-.488.149-.74.2a21.281,21.281,0,0,0,.125,3.81,51.047,51.047,0,0,0,1.547,7.662,22.768,22.768,0,0,0,2.707-.64,50.415,50.415,0,0,0-1.65-7.371A19.988,19.988,0,0,0,54.911,156.108ZM47.92,130.5a21.79,21.79,0,0,1,.525,3.755c.135-.035.268-.073.4-.1a38.048,38.048,0,0,1-1.387-11.522c-.629.106-1.249.241-1.863.393,0,.031,0,.064.008.093A51.509,51.509,0,0,1,47.92,130.5Zm3.414,26.192c-.315,0-.626-.019-.933-.047-.067-.006-.136,0-.2-.011a21.382,21.382,0,0,0-1.049,3.633,51.11,51.11,0,0,0-.9,7.787,23.081,23.081,0,0,0,2.775.215c.823-5.031.9-9.069.406-11.583C51.4,156.682,51.368,156.688,51.334,156.688Zm-6.128-21.024c.025-.017.053-.028.079-.044.076-.046.149-.1.226-.142a20.423,20.423,0,0,1-1.557-2.451A20.819,20.819,0,0,1,45.206,135.664Zm2.274,32.269c.043-.877.1-1.725.176-2.557-.268.785-.561,1.591-.882,2.418C47.009,167.841,47.242,167.893,47.48,167.933Zm-4.03-35.866a51.328,51.328,0,0,1-2.828-7.138c-.562.3-1.1.624-1.633.965a49.082,49.082,0,0,1,4.824,6.87C43.689,132.531,43.566,132.3,43.45,132.067Zm-3.442,33.208c.224.127.443.259.672.378q.506-1.329,1.042-2.571Q40.921,164.155,40.007,165.275Zm7.26-9.347c-.058-.021-.111-.051-.168-.074-.122-.05-.248-.088-.368-.14a37.511,37.511,0,0,0-5.365,10.271c.549.265,1.112.5,1.683.724a51.661,51.661,0,0,1,2.526-7.55A22.4,22.4,0,0,1,47.267,155.928Zm8.711-.241c-.1.048-.206.1-.312.144a21.978,21.978,0,0,1,1.56,3.821,50.95,50.95,0,0,1,1.654,7.337c.61-.212,1.2-.458,1.789-.719a38.33,38.33,0,0,1-4.624-10.609C56.024,155.671,56,155.676,55.978,155.687ZM34.845,129.257c-.433.446-.837.918-1.231,1.4a51.713,51.713,0,0,1,6.11,4.5A51.45,51.45,0,0,1,34.845,129.257Zm7.428,9.107c.013-.018.027-.034.041-.051s.018-.03.027-.043a38.232,38.232,0,0,0-8.932-7.356c-.153.192-.31.378-.456.574A40.169,40.169,0,0,1,42.273,138.364Zm-.882,1.327c.048-.085.112-.158.162-.241.091-.155.169-.317.267-.466A37.973,37.973,0,0,0,32.5,132.1c-.333.477-.646.969-.945,1.47a50.719,50.719,0,0,0,6.2,4.4A20.125,20.125,0,0,0,41.391,139.691Zm-.213.409c.019-.035.032-.073.05-.109a21.059,21.059,0,0,1-3.638-1.743,51.005,51.005,0,0,1-6.2-4.393c-.117.2-.24.4-.35.6,4.083,3.012,7.639,4.938,10.124,5.674Zm1.536-2.28.028-.034a17.4,17.4,0,0,1-1.379-1.088c.44.452.834.893,1.172,1.316C42.591,137.947,42.656,137.887,42.714,137.82Zm2.177-1.954c.017-.011.028-.026.045-.037a38.194,38.194,0,0,0-6.223-9.754c-.194.128-.393.25-.583.383a40.145,40.145,0,0,1,6.739,9.42Zm1.3-.766c.041-.021.086-.035.128-.056.24-.119.491-.219.74-.322.108-.043.208-.1.317-.137a37.788,37.788,0,0,0-3.489-11.057,22.643,22.643,0,0,0-2.561,1.06,50.819,50.819,0,0,0,2.815,7.132A21,21,0,0,0,46.2,135.1Zm-2.6,1.814c.039-.037.085-.065.124-.1.179-.158.35-.324.538-.473a37.882,37.882,0,0,0-6.734-9.425c-.477.358-.915.762-1.363,1.154C38.808,132.171,41.452,135.31,43.592,136.914Zm-.316.286c.021-.021.046-.038.067-.059l.011-.012c-2.178-1.644-4.808-4.759-7.449-8.846-.162.145-.342.271-.5.421a50.681,50.681,0,0,0,4.895,5.929A20.745,20.745,0,0,0,43.276,137.2Zm-4.489,11.113c.533-.072,1.048-.129,1.52-.153-.009-.035-.013-.072-.022-.109s-.031-.095-.043-.144C39.78,148.067,39.282,148.19,38.787,148.313Zm1.295-4.823c0-.031.006-.064.011-.095a21.265,21.265,0,0,1-3.978-.539,50.908,50.908,0,0,1-7.274-2.267c-.047.235-.1.469-.142.707,4.811,1.6,8.783,2.331,11.369,2.261C40.071,143.536,40.078,143.514,40.082,143.491Zm-3.739,1.142a23.627,23.627,0,0,1,3.594.414c0-.021,0-.043,0-.064l0-.052A21.771,21.771,0,0,0,36.3,144.3a51.442,51.442,0,0,0-7.921-.067c-.012.247-.033.493-.037.744A51.924,51.924,0,0,1,36.343,144.633Zm3.8-1.566c.053-.267.118-.53.192-.79a21.685,21.685,0,0,0-3.316-1.543,51.332,51.332,0,0,0-7.695-2.132c-.164.545-.3,1.1-.417,1.665a50.837,50.837,0,0,0,7.279,2.274A20.532,20.532,0,0,0,40.142,143.067Zm-.183,1.529h0c.006-.1.006-.192.014-.286-.08,0-.155.007-.238.007-.413,0-.854-.022-1.31-.057C38.977,144.359,39.492,144.47,39.959,144.6Zm-4.024-.65a52.721,52.721,0,0,1-7.352-1.889c-.085.609-.142,1.225-.183,1.846A52.332,52.332,0,0,1,35.935,143.946Zm3.8,7.607c-.553.2-1.126.432-1.74.71-1.116.506-2.3,1.123-3.523,1.82A34.834,34.834,0,0,0,39.735,151.553Zm-9.034-16.4c-.273.558-.518,1.131-.749,1.712a51.974,51.974,0,0,1,7.344,2.449A51.859,51.859,0,0,1,30.7,135.155Zm9.617,16.923c.5-.241.977-.458,1.427-.629-.033-.052-.059-.11-.092-.162-.015-.026-.035-.048-.051-.074C41.219,151.5,40.781,151.79,40.318,152.077Zm.258-10.57c.009-.028.02-.056.03-.083l0-.008a21.67,21.67,0,0,0-3.285-1.74,51.415,51.415,0,0,0-7.487-2.506c-.086.229-.181.455-.26.688a52.014,52.014,0,0,1,7.715,2.148A23.668,23.668,0,0,1,40.576,141.508Z" transform="translate(0 0)" fill="url(#a)"/><g transform="translate(91.691 145.687)"><path d="M81.912,161.932V142.311H95.871v1.317h-12.5v7.765h11.24v1.316H83.369v7.9H96.011v1.319Z" transform="translate(-81.912 -142.032)" fill="#007fcd" stroke="#006fb9" stroke-miterlimit="10" stroke-width="1"/><path d="M106.023,154.14v7.792h-1.457v-7.765l-8.409-11.856h1.822l7.344,10.54,7.371-10.54h1.738Z" transform="translate(-79.311 -142.032)" fill="#007fcd" stroke="#006fb9" stroke-miterlimit="10" stroke-width="1"/><path d="M114.467,161.932V142.311h13.959v1.317h-12.5v7.765h11.24v1.316h-11.24v7.9h12.642v1.319Z" transform="translate(-75.969 -142.032)" fill="#007fcd" stroke="#006fb9" stroke-miterlimit="10" stroke-width="1"/><path d="M136.675,161.932V142.311h1.458v19.621Z" transform="translate(-71.914 -142.032)" fill="#007fcd" stroke="#006fb9" stroke-miterlimit="10" stroke-width="1"/><path d="M157.911,161.932,144.092,144.5v17.435h-1.4V142.311h1.373L157.6,159.383V142.311H159v19.621Z" transform="translate(-70.816 -142.032)" fill="#007fcd" stroke="#006fb9" stroke-miterlimit="10" stroke-width="1"/><path d="M173.905,159.073a5.046,5.046,0,0,1-1.346,1.7,6.368,6.368,0,0,1-2.046,1.093,8.41,8.41,0,0,1-2.621.391,11.024,11.024,0,0,1-4.247-.784,13.036,13.036,0,0,1-3.658-2.355l.953-1.1a13.973,13.973,0,0,0,1.612,1.306,8.92,8.92,0,0,0,3.406,1.427,10.327,10.327,0,0,0,2.017.182,6.667,6.667,0,0,0,2.019-.293,4.78,4.78,0,0,0,1.569-.812,3.794,3.794,0,0,0,1.01-1.235,3.4,3.4,0,0,0,.364-1.555v-.054a3.886,3.886,0,0,0-.239-1.4,2.688,2.688,0,0,0-.869-1.12,6.291,6.291,0,0,0-1.7-.912,17.61,17.61,0,0,0-2.746-.741,19.314,19.314,0,0,1-3.027-.856,7.429,7.429,0,0,1-2.06-1.149,3.935,3.935,0,0,1-1.164-1.525,5.1,5.1,0,0,1-.364-1.991v-.056a4.412,4.412,0,0,1,.477-2.032,5.114,5.114,0,0,1,1.317-1.64,6.164,6.164,0,0,1,1.99-1.093,7.735,7.735,0,0,1,2.522-.393,10.4,10.4,0,0,1,3.685.589,11.063,11.063,0,0,1,3.042,1.793l-.925,1.149a8.405,8.405,0,0,0-5.857-2.215,6.234,6.234,0,0,0-1.977.294,4.888,4.888,0,0,0-1.512.8,3.544,3.544,0,0,0-.967,1.177,3.159,3.159,0,0,0-.337,1.431v.057a3.982,3.982,0,0,0,.239,1.414,2.741,2.741,0,0,0,.869,1.149,6.142,6.142,0,0,0,1.751.94,20.157,20.157,0,0,0,2.859.784,11.285,11.285,0,0,1,4.932,1.976,4.258,4.258,0,0,1,1.514,3.433v.057A4.841,4.841,0,0,1,173.905,159.073Z" transform="translate(-67.658 -142.075)" fill="#007fcd" stroke="#006fb9" stroke-miterlimit="10" stroke-width="1"/><path d="M182.721,143.628v18.3h-1.458v-18.3h-6.84v-1.317h15.136v1.317Z" transform="translate(-65.023 -142.032)" fill="#007fcd" stroke="#006fb9" stroke-miterlimit="10" stroke-width="1"/><path d="M190.434,161.932V142.311h1.458v19.621Z" transform="translate(-62.099 -142.032)" fill="#007fcd" stroke="#006fb9" stroke-miterlimit="10" stroke-width="1"/><path d="M203.164,143.628v18.3h-1.457v-18.3h-6.84v-1.317H210v1.317Z" transform="translate(-61.29 -142.032)" fill="#007fcd" stroke="#006fb9" stroke-miterlimit="10" stroke-width="1"/><path d="M226.164,157.323a7.459,7.459,0,0,1-1.653,2.7,6.9,6.9,0,0,1-2.537,1.654,9.1,9.1,0,0,1-3.265.561,9.265,9.265,0,0,1-3.238-.545,7.01,7.01,0,0,1-2.551-1.626,7.311,7.311,0,0,1-1.667-2.648,10.354,10.354,0,0,1-.589-3.646V142.311h1.458v11.325a7.645,7.645,0,0,0,1.751,5.394,6.333,6.333,0,0,0,4.891,1.893,7.661,7.661,0,0,0,2.69-.449,5.393,5.393,0,0,0,2.061-1.346,6.06,6.06,0,0,0,1.317-2.242,9.582,9.582,0,0,0,.461-3.111V142.311h1.458v11.3A10.8,10.8,0,0,1,226.164,157.323Z" transform="translate(-58.406 -142.032)" fill="#007fcd" stroke="#006fb9" stroke-miterlimit="10" stroke-width="1"/><path d="M235.565,143.628v18.3h-1.458v-18.3h-6.839v-1.317H242.4v1.317Z" transform="translate(-55.375 -142.032)" fill="#007fcd" stroke="#006fb9" stroke-miterlimit="10" stroke-width="1"/><path d="M243.2,161.932V142.311h13.958v1.317h-12.5v7.765h11.24v1.316h-11.24v7.9h12.642v1.319Z" transform="translate(-52.467 -142.032)" fill="#007fcd" stroke="#006fb9" stroke-miterlimit="10" stroke-width="1"/></g><g transform="translate(91.691 124.198)" opacity="0.81"><path d="M83.507,127.624a1.419,1.419,0,0,0,.407.59,2.92,2.92,0,0,0,.811.482,8.46,8.46,0,0,0,1.332.41,5.43,5.43,0,0,1,2.415,1.162,2.7,2.7,0,0,1,.777,2.047A3.415,3.415,0,0,1,89,133.641a2.9,2.9,0,0,1-1.74,1.661,3.889,3.889,0,0,1-1.345.226,5.189,5.189,0,0,1-2.149-.438,6.018,6.018,0,0,1-1.855-1.352l.686-.933a5.761,5.761,0,0,0,1.554,1.2,3.973,3.973,0,0,0,1.807.395,2.3,2.3,0,0,0,1.588-.531,1.794,1.794,0,0,0,.6-1.4,2.142,2.142,0,0,0-.112-.718,1.419,1.419,0,0,0-.394-.572,2.674,2.674,0,0,0-.778-.467,8.674,8.674,0,0,0-1.271-.4,9.1,9.1,0,0,1-1.466-.485,3.558,3.558,0,0,1-1.032-.661,2.425,2.425,0,0,1-.6-.9,3.464,3.464,0,0,1-.2-1.226,3.172,3.172,0,0,1,.238-1.243,2.855,2.855,0,0,1,.673-.976,3.209,3.209,0,0,1,1.022-.645,3.481,3.481,0,0,1,1.289-.235,4.785,4.785,0,0,1,1.883.343,5.528,5.528,0,0,1,1.561,1.028l-.643.982a4.743,4.743,0,0,0-1.379-.934,3.716,3.716,0,0,0-1.45-.29,2.4,2.4,0,0,0-.862.147,2.1,2.1,0,0,0-.658.387,1.617,1.617,0,0,0-.42.579,1.809,1.809,0,0,0-.148.727A2.2,2.2,0,0,0,83.507,127.624Z" transform="translate(-81.912 -123.899)" fill="#1a1818" stroke="#1a1818" stroke-miterlimit="10" stroke-width="1"/><path d="M105.167,135.354h-1.19l-1.149-2.979H97.494l-1.161,2.979H95.2L99.664,124H100.7Zm-5-9.856-2.24,5.748h4.467Z" transform="translate(-79.487 -123.886)" fill="#1a1818" stroke="#1a1818" stroke-miterlimit="10" stroke-width="1"/><path d="M118.466,124.068h1.078v11.273h-.882l-6.329-9.244v9.244h-1.078V124.068h1.036l6.175,9.035Z" transform="translate(-76.555 -123.874)" fill="#1a1818" stroke="#1a1818" stroke-miterlimit="10" stroke-width="1"/><path d="M142.454,125.245h-5.938v4.024h5.307v1.16h-5.307v4.912h-1.106V124.068h7.043Z" transform="translate(-72.145 -123.874)" fill="#1a1818" stroke="#1a1818" stroke-miterlimit="10" stroke-width="1"/><path d="M155.84,135.341,153,130.961h-2.8v4.38h-1.106V124.068h4.215a4.212,4.212,0,0,1,1.463.242,3.165,3.165,0,0,1,1.114.686,3.026,3.026,0,0,1,.714,1.062,3.638,3.638,0,0,1,.252,1.379,3.766,3.766,0,0,1-.2,1.263,2.987,2.987,0,0,1-.552.969,3.167,3.167,0,0,1-.848.684,3.616,3.616,0,0,1-1.064.388l3.011,4.6Zm-.758-9.507a2.682,2.682,0,0,0-1.853-.59H150.2v4.59h3.019a3.093,3.093,0,0,0,1.011-.161,2.411,2.411,0,0,0,.8-.461,2.077,2.077,0,0,0,.526-.736,2.459,2.459,0,0,0,.189-.987A2.1,2.1,0,0,0,155.082,125.835Z" transform="translate(-69.647 -123.874)" fill="#1a1818" stroke="#1a1818" stroke-miterlimit="10" stroke-width="1"/><path d="M173.192,135.354H172l-1.149-2.979h-5.336l-1.161,2.979h-1.134L167.689,124h1.036Zm-5-9.856-2.241,5.748h4.468Z" transform="translate(-67.067 -123.886)" fill="#1a1818" stroke="#1a1818" stroke-miterlimit="10" stroke-width="1"/><path d="M186.49,124.068h1.079v11.273h-.882l-6.329-9.244v9.244h-1.078V124.068h1.036l6.175,9.035Z" transform="translate(-64.136 -123.874)" fill="#1a1818" stroke="#1a1818" stroke-miterlimit="10" stroke-width="1"/><path d="M202.383,134.4a4.957,4.957,0,0,1-.889.62,4.638,4.638,0,0,1-1.022.4,4.7,4.7,0,0,1-1.219.147,4.307,4.307,0,0,1-1.961-.452,4.88,4.88,0,0,1-1.555-1.233,5.758,5.758,0,0,1-1.029-1.844,7.2,7.2,0,0,1,0-4.556,5.98,5.98,0,0,1,1.029-1.859,4.853,4.853,0,0,1,1.569-1.256,4.337,4.337,0,0,1,1.989-.461,5.177,5.177,0,0,1,1.21.13,4.689,4.689,0,0,1,1,.363,4.446,4.446,0,0,1,.854.563,7.852,7.852,0,0,1,.756.733l-.756.933a6.309,6.309,0,0,0-1.352-1.11,3.287,3.287,0,0,0-1.729-.435,3.243,3.243,0,0,0-1.505.356,3.686,3.686,0,0,0-1.2.982,4.681,4.681,0,0,0-.8,1.472,5.649,5.649,0,0,0-.286,1.828,5.713,5.713,0,0,0,.286,1.835,4.647,4.647,0,0,0,.8,1.481,3.812,3.812,0,0,0,1.2.992,3.2,3.2,0,0,0,1.505.362,3.367,3.367,0,0,0,1.736-.426,6.173,6.173,0,0,0,1.429-1.2l.727.823A7.382,7.382,0,0,1,202.383,134.4Z" transform="translate(-61.387 -123.904)" fill="#1a1818" stroke="#1a1818" stroke-miterlimit="10" stroke-width="1"/><path d="M210.642,124.068v11.273h-1.106V124.068Z" transform="translate(-58.612 -123.874)" fill="#1a1818" stroke="#1a1818" stroke-miterlimit="10" stroke-width="1"/><path d="M219.991,127.624a1.431,1.431,0,0,0,.407.59,2.92,2.92,0,0,0,.811.482,8.46,8.46,0,0,0,1.332.41,5.43,5.43,0,0,1,2.415,1.162,2.7,2.7,0,0,1,.777,2.047,3.393,3.393,0,0,1-.248,1.324,2.9,2.9,0,0,1-1.74,1.661,3.89,3.89,0,0,1-1.345.226,5.189,5.189,0,0,1-2.149-.438,6.018,6.018,0,0,1-1.855-1.352l.686-.933a5.78,5.78,0,0,0,1.554,1.2,3.976,3.976,0,0,0,1.807.395,2.3,2.3,0,0,0,1.588-.531,1.79,1.79,0,0,0,.6-1.4,2.142,2.142,0,0,0-.112-.718,1.42,1.42,0,0,0-.394-.572,2.658,2.658,0,0,0-.778-.467,8.7,8.7,0,0,0-1.27-.4,9.12,9.12,0,0,1-1.468-.485,3.558,3.558,0,0,1-1.032-.661,2.408,2.408,0,0,1-.6-.9,3.436,3.436,0,0,1-.2-1.226,3.172,3.172,0,0,1,.238-1.243,2.855,2.855,0,0,1,.673-.976,3.222,3.222,0,0,1,1.022-.645,3.481,3.481,0,0,1,1.289-.235,4.785,4.785,0,0,1,1.883.343,5.528,5.528,0,0,1,1.561,1.028l-.643.982a4.743,4.743,0,0,0-1.379-.934,3.712,3.712,0,0,0-1.45-.29,2.386,2.386,0,0,0-.861.147,2.089,2.089,0,0,0-.659.387,1.618,1.618,0,0,0-.42.579,1.809,1.809,0,0,0-.147.727A2.2,2.2,0,0,0,219.991,127.624Z" transform="translate(-56.995 -123.899)" fill="#1a1818" stroke="#1a1818" stroke-miterlimit="10" stroke-width="1"/><path d="M240.135,134.4a4.914,4.914,0,0,1-.889.62,4.638,4.638,0,0,1-1.022.4,4.686,4.686,0,0,1-1.218.147,4.308,4.308,0,0,1-1.962-.452,4.863,4.863,0,0,1-1.554-1.233,5.758,5.758,0,0,1-1.029-1.844,7.174,7.174,0,0,1,0-4.556,5.98,5.98,0,0,1,1.029-1.859,4.828,4.828,0,0,1,1.569-1.256,4.329,4.329,0,0,1,1.988-.461,5.194,5.194,0,0,1,1.211.13,4.679,4.679,0,0,1,1,.363,4.491,4.491,0,0,1,.855.563,8.134,8.134,0,0,1,.756.733l-.756.933a6.367,6.367,0,0,0-1.352-1.11,3.3,3.3,0,0,0-1.73-.435,3.243,3.243,0,0,0-1.505.356,3.7,3.7,0,0,0-1.2.982,4.678,4.678,0,0,0-.8,1.472,5.648,5.648,0,0,0-.287,1.828,5.712,5.712,0,0,0,.287,1.835,4.644,4.644,0,0,0,.8,1.481,3.824,3.824,0,0,0,1.2.992,3.2,3.2,0,0,0,1.505.362,3.368,3.368,0,0,0,1.736-.426,6.149,6.149,0,0,0,1.429-1.2l.728.823A7.389,7.389,0,0,1,240.135,134.4Z" transform="translate(-54.494 -123.904)" fill="#1a1818" stroke="#1a1818" stroke-miterlimit="10" stroke-width="1"/><path d="M256.3,131.95a6.049,6.049,0,0,1-1.023,1.86,4.95,4.95,0,0,1-1.582,1.278,4.651,4.651,0,0,1-4.082.009,4.951,4.951,0,0,1-1.575-1.265,5.786,5.786,0,0,1-1.015-1.851,6.9,6.9,0,0,1-.357-2.232,6.783,6.783,0,0,1,.363-2.229,6.028,6.028,0,0,1,1.023-1.861,4.954,4.954,0,0,1,1.582-1.28,4.646,4.646,0,0,1,4.082-.008,4.931,4.931,0,0,1,1.575,1.264,5.8,5.8,0,0,1,1.015,1.851,6.9,6.9,0,0,1,.357,2.232A6.807,6.807,0,0,1,256.3,131.95Zm-1.071-4.018a4.594,4.594,0,0,0-.805-1.482,3.933,3.933,0,0,0-1.225-1,3.271,3.271,0,0,0-1.548-.371,3.353,3.353,0,0,0-1.548.362,3.71,3.71,0,0,0-1.211.992,4.772,4.772,0,0,0-.791,1.472,5.588,5.588,0,0,0-.287,1.812,5.652,5.652,0,0,0,.287,1.819,4.6,4.6,0,0,0,.805,1.482,3.934,3.934,0,0,0,1.225,1,3.267,3.267,0,0,0,1.548.371,3.353,3.353,0,0,0,1.548-.362,3.7,3.7,0,0,0,1.21-.992,4.775,4.775,0,0,0,.792-1.472,5.587,5.587,0,0,0,.287-1.812A5.651,5.651,0,0,0,255.227,127.932Z" transform="translate(-51.834 -123.904)" fill="#1a1818" stroke="#1a1818" stroke-miterlimit="10" stroke-width="1"/></g></g></svg>