<svg xmlns="http://www.w3.org/2000/svg" xmlns:xlink="http://www.w3.org/1999/xlink" width="217.102" height="37.132" viewBox="0 0 217.102 37.132"><defs><linearGradient id="a" x1="0.5" y1="1" x2="0.5" gradientUnits="objectBoundingBox"><stop offset="0.172" stop-color="#007fcd"/><stop offset="0.726" stop-color="#b1c91e"/><stop offset="1" stop-color="#f46e0f"/></linearGradient></defs><g transform="translate(-28.346 -122.292)"><path d="M65.114,144.485c.027-.141.059-.281.084-.423a33.819,33.819,0,0,1-8.665-1.378A32.964,32.964,0,0,0,65.114,144.485Zm-9-3.4c0,.01,0,.021,0,.032-.008.254-.016.507-.044.756a29.842,29.842,0,0,0,9.22,1.582c.073-.519.118-1.045.15-1.575A28.882,28.882,0,0,0,56.118,141.084Zm1.37-.371a33.918,33.918,0,0,1,7.967.9c.006-.136.018-.269.021-.4a40.72,40.72,0,0,0-6.036-.567C58.727,140.632,58.078,140.66,57.488,140.713ZM42.413,124.031c.089.71.19,1.386.3,2.039a26.587,26.587,0,0,1,1.556,5.678c.015.032.03.071.044.1a17.749,17.749,0,0,0-.415-2.876A39.059,39.059,0,0,0,42.413,124.031Zm16.455,20.578a40.941,40.941,0,0,1,5.448,2.688c.05-.134.105-.265.152-.4a31.624,31.624,0,0,0-8.017-3.062A18.04,18.04,0,0,1,58.869,144.609Zm-5.883-21.3c-.12.573-.249,1.132-.382,1.682.264-.495.545-1,.838-1.5C53.289,123.434,53.141,123.368,52.986,123.314Zm2.368,22.119a32.289,32.289,0,0,0,7.761,4.49c.072-.126.148-.248.216-.376a41.719,41.719,0,0,1-5.742-2.635A19.649,19.649,0,0,1,55.354,145.433Zm-.478.043c-.052.086-.1.173-.154.258a17.65,17.65,0,0,1,2.86,1.768,40.964,40.964,0,0,1,4.549,3.994c.3-.434.584-.884.85-1.342a30.642,30.642,0,0,1-8.055-4.758C54.912,145.425,54.893,145.45,54.876,145.476Zm.717-1.547c-.012.035-.032.068-.045.1-.073.2-.141.394-.226.585a17.149,17.149,0,0,0,2.576,1.749,41.11,41.11,0,0,0,5.706,2.613c.227-.467.429-.948.618-1.435a40.885,40.885,0,0,0-5.449-2.692A15.9,15.9,0,0,0,55.594,143.929Zm-6.531,15.212c.01.045.024.094.034.138.165-.02.333-.033.5-.057-.174-.637-.329-1.26-.472-1.873C49.113,157.934,49.094,158.53,49.062,159.141Zm-3.834-8.828c.007-.127.029-.274.032-.4-.029,0-.054-.016-.083-.022-.142-.027-.285-.053-.424-.087a17.815,17.815,0,0,1-.78,3.2,41.479,41.479,0,0,1-2.43,5.631c.465.14.942.251,1.423.351.42-1.08.785-2.118,1.094-3.1.123-1.088.281-2.115.475-3.055A19.809,19.809,0,0,1,45.228,150.312Zm3.993-18.36c.068.017.139.027.206.046a15.318,15.318,0,0,0,.892-1.8c.131-.413.277-.84.457-1.3.091-.233.2-.476.3-.714A44.035,44.035,0,0,0,52.4,123.1c-.487-.151-.988-.268-1.493-.374a30.336,30.336,0,0,1-2.05,9.122C48.985,131.879,49.1,131.921,49.222,131.952Zm-1.442-9.629c-.171-.009-.34-.024-.512-.028q.1.91.167,1.783C47.536,123.506,47.652,122.919,47.78,122.324Zm-5.75.688c-.008-.02-.017-.04-.025-.059-.174.046-.351.085-.522.138.283.626.543,1.242.79,1.852C42.182,124.318,42.1,123.68,42.03,123.011Zm2.11,26.635c-.075-.024-.146-.058-.222-.085-.011,0-.024,0-.034-.009a17.732,17.732,0,0,0-1.382,2.62,41.584,41.584,0,0,0-2.034,6.086c.158.059.312.124.473.179a40.873,40.873,0,0,0,2.436-5.626A16.456,16.456,0,0,0,44.139,149.647Zm1.434-17.893c.237-.036.48-.053.724-.07.082-.006.162-.02.246-.024a16.49,16.49,0,0,0,.335-2.482c.007-.28.016-.568.034-.869,0-.028.006-.057.007-.084a42.479,42.479,0,0,0-.285-5.932,18.7,18.7,0,0,0-2.234.176,29.221,29.221,0,0,0,1.113,9.292C45.533,131.757,45.553,131.757,45.573,131.754Zm2.852.023c.025,0,.048.011.073.015s.074.006.11.012a30.414,30.414,0,0,0,2.043-9.127c-.144-.029-.287-.062-.432-.088a40.913,40.913,0,0,0-1.533,5.96A16.567,16.567,0,0,0,48.425,131.777Zm6.8,14.938a32.619,32.619,0,0,1,6.245,5.626c.091-.115.195-.218.284-.334a40.683,40.683,0,0,0-4.543-4A18.548,18.548,0,0,0,55.223,146.714Zm-7.157-18.268a41.34,41.34,0,0,1,1.523-5.953c-.509-.074-1.025-.121-1.545-.155-.217,1.012-.394,1.993-.536,2.935.063,1.22.078,2.378.03,3.436a19.59,19.59,0,0,1-.3,2.673c.011.092.019.19.032.278h0c.175,0,.351.01.522.026A17.921,17.921,0,0,1,48.066,128.446Zm.162,21.862c-.021-.079-.04-.166-.062-.243a29.1,29.1,0,0,0,.675,8.013c.021-.657.025-1.29.02-1.912-.23-1.111-.407-2.173-.517-3.159A19.651,19.651,0,0,1,48.228,150.308Zm7.629-7.276c-.008.03-.012.061-.02.091a29.9,29.9,0,0,1,8.838,3.192c.157-.511.278-1.037.386-1.568a30.525,30.525,0,0,1-9.118-2.039C55.92,142.816,55.884,142.921,55.857,143.031Zm-.087-4.68c.062.217.127.432.172.654a17.231,17.231,0,0,0,3.091-.1,41.176,41.176,0,0,0,6.166-1.244c-.091-.523-.205-1.037-.335-1.544a28.813,28.813,0,0,0-9.115,2.13C55.758,138.281,55.761,138.318,55.77,138.351ZM54.733,136c.16.257.3.523.439.8l.013.023a16.928,16.928,0,0,0,2.984-.9,41.4,41.4,0,0,0,5.617-2.792,18.471,18.471,0,0,0-1.194-2.208,41.616,41.616,0,0,1-5.143,3.716A18.605,18.605,0,0,1,54.733,136Zm1.335,3.831c.011.1.01.2.017.292,0,.047.011.092.013.138a17.66,17.66,0,0,1,3.346-.249,41,41,0,0,1,6.034.559c-.009-.543-.052-1.075-.108-1.6a36.868,36.868,0,0,1-7.568.969A14.01,14.01,0,0,1,56.068,139.829Zm8.727-3.971c-.036-.129-.064-.262-.1-.39a32.965,32.965,0,0,0-7.986,2.093A32.948,32.948,0,0,1,64.8,135.858Zm-9.491,1.2c.027.06.046.124.073.184.033.078.073.154.1.233a30,30,0,0,1,9.011-2.6c-.176-.516-.38-1.016-.6-1.51a41.582,41.582,0,0,1-5.628,2.795A17.482,17.482,0,0,1,55.3,137.062Zm1.886,2.6a34.956,34.956,0,0,0,8.149-.961c-.016-.136-.027-.273-.046-.409A41.573,41.573,0,0,1,59.1,139.53C58.487,139.6,57.835,139.641,57.191,139.657Zm-7.047-7.711c-.016.09-.038.184-.053.27.074.028.143.067.217.1.22.088.44.172.651.275a17.881,17.881,0,0,1,1.4-2.969,41.386,41.386,0,0,1,3.51-5.037,17.707,17.707,0,0,0-2.181-.993q-.754,1.3-1.374,2.543A27.054,27.054,0,0,1,50.144,131.946Zm.811,17.184,0,0a31.082,31.082,0,0,0,3.745,8.569c.145-.068.294-.129.437-.2a31.634,31.634,0,0,1-4.15-8.385Zm1.722-15.707c-.031.057-.069.119-.1.177.04.031.073.069.112.1a9.421,9.421,0,0,1,.8.723c.024.025.053.045.076.07a30.3,30.3,0,0,0,7.016-6.171,18.7,18.7,0,0,0-1.912-1.808q-1.07.963-2.007,1.91A26.867,26.867,0,0,1,52.677,133.422ZM61.488,131c.256-.205.51-.4.768-.62-.031-.044-.065-.084-.1-.127a31.892,31.892,0,0,0-7.208,4.683A29.7,29.7,0,0,1,61.488,131ZM55.1,135.141a18.542,18.542,0,0,0,2.026-1.044,36.681,36.681,0,0,0,3.391-2.332A27.466,27.466,0,0,0,55.1,135.141Zm-3.155,13.41c-.138.091-.271.188-.415.271a29.9,29.9,0,0,0,4.156,8.411c.447-.241.876-.507,1.3-.784a29.421,29.421,0,0,0-4.819-8.027C52.1,148.471,52.019,148.5,51.948,148.551Zm2.923,1.561a17.892,17.892,0,0,1-1.736-2.469h0c-.092.084-.181.171-.277.251a17.745,17.745,0,0,1,2.164,2.558,41.13,41.13,0,0,1,3.092,5.2c.419-.318.822-.656,1.214-1A41.768,41.768,0,0,1,54.871,150.112Zm-2.048-1.351a31.838,31.838,0,0,1,4.39,7.538c.129-.088.262-.17.389-.26a40.678,40.678,0,0,0-3.092-5.222A18.134,18.134,0,0,0,52.823,148.761Zm.657-1.065a17.666,17.666,0,0,0,1.593,2.249,41.522,41.522,0,0,0,4.448,4.529c.114-.1.231-.2.341-.308A32.586,32.586,0,0,1,53.48,147.7Zm-1.952-14.828-.006.017c.173.1.346.2.511.31a14.652,14.652,0,0,0,1.3-1.3c.279-.394.586-.8.939-1.232.194-.237.408-.479.62-.72a44.283,44.283,0,0,0,2.725-4.256c-.389-.275-.791-.529-1.2-.774-.119.148-.228.294-.345.443a40.423,40.423,0,0,1-2.685,5.056A17.424,17.424,0,0,1,51.528,132.868Zm1.376-2.936a18.406,18.406,0,0,0-1.116,2.24,19.271,19.271,0,0,0,1.373-1.9,37.8,37.8,0,0,0,2.179-3.975A37.069,37.069,0,0,0,52.9,129.932Zm.838,4.752c.019.021.035.045.054.067.075.085.16.161.233.25a30.133,30.133,0,0,1,7.759-5.244c-.323-.432-.671-.843-1.029-1.245A30.32,30.32,0,0,1,53.742,134.684Zm4.724-8.339c-.12-.1-.235-.2-.358-.291-.274.479-.553.942-.832,1.4C57.658,127.084,58.056,126.715,58.466,126.346Zm-4.224,20.082c-.04.053-.091.1-.133.152-.117.146-.229.3-.355.437a29.83,29.83,0,0,0,6.54,6.71c.358-.372.676-.779,1-1.182A29.18,29.18,0,0,0,54.242,146.428Zm-15.891-8.959c.027-.073.05-.146.079-.217a14.606,14.606,0,0,1-1.412-.531,15,15,0,0,1,1.325.763Zm-7.594,12.055-.205.138c.227.423.476.833.735,1.235a42.259,42.259,0,0,1,4.922-3.551A41.875,41.875,0,0,1,30.757,149.523Zm11.548-.074c.068-.171.135-.342.191-.5-.046-.025-.085-.06-.13-.086-.088-.052-.177-.1-.264-.153a17.931,17.931,0,0,1-1.729,2.779A41.127,41.127,0,0,1,36.31,156.1c.4.276.807.531,1.225.777.777-.952,1.493-1.89,2.13-2.8A26.5,26.5,0,0,1,42.3,149.449Zm-4.53-7.458c-.018-.148-.018-.3-.031-.452,0-.073-.019-.142-.022-.215a17.473,17.473,0,0,0-2.947-.36,41.42,41.42,0,0,0-6.421.279c.01.466.044.924.089,1.379A29.6,29.6,0,0,0,37.774,141.991Zm3.331,6.017c-.093-.075-.177-.161-.266-.24-.019-.016-.039-.03-.058-.046a17.318,17.318,0,0,0-2.375,1.853,41.386,41.386,0,0,0-4.315,4.7c.349.333.733.628,1.107.932A31.271,31.271,0,0,1,41.1,148.009Zm.461.345c-.054-.038-.1-.085-.156-.124-.032-.024-.068-.042-.1-.066A31.316,31.316,0,0,0,35.4,155.38c.139.11.264.236.406.342a40.8,40.8,0,0,0,4.066-4.609A16.579,16.579,0,0,0,41.566,148.353Zm-8.359,5.019c.143.156.281.317.429.469.494-.618.988-1.2,1.48-1.762Q34.2,152.728,33.208,153.373Zm4.622-11.019c0-.02,0-.041-.006-.061s-.009-.036-.011-.054a24.006,24.006,0,0,1-6.553.736c-.881,0-1.821-.037-2.787-.091.022.195.039.391.067.585a41.2,41.2,0,0,0,6.185-.382A16.778,16.778,0,0,0,37.83,142.354ZM28.846,144.1c-.068,0-.142-.006-.211-.007.087.493.2.975.322,1.453a42.59,42.59,0,0,1,5.607-1.809A41.36,41.36,0,0,1,28.846,144.1Zm7.036,1.825a20.7,20.7,0,0,1,2.268-.864c.151-.094.3-.187.436-.282-.025-.053-.039-.112-.064-.166a9,9,0,0,1-.37-.971c-.024-.073-.06-.138-.081-.212a31.39,31.39,0,0,0-9.039,2.372,18.342,18.342,0,0,0,.871,2.459c1.22-.322,2.366-.667,3.418-1.029C34.206,146.737,35.065,146.3,35.881,145.927Zm-5.869,2.579c.081.179.156.361.242.537l.177-.055c.609-.4,1.208-.767,1.8-1.12Q31.171,148.2,30.012,148.506Zm7.97.607a20.411,20.411,0,0,1,1.874-1.513c.123-.146.245-.293.352-.434-.029-.03-.05-.065-.077-.1a8.9,8.9,0,0,1-.652-.8c-.05-.067-.11-.125-.158-.193a17.6,17.6,0,0,0-2.651,1.3,41.7,41.7,0,0,0-5.234,3.738,18.644,18.644,0,0,0,1.593,2.062c1.041-.671,2.019-1.347,2.912-2.021C36.634,150.406,37.317,149.718,37.982,149.113Zm9.948.9c-.074.008-.152.007-.227.013l-.1.011a30.118,30.118,0,0,1-.317,9.38c.505-.01,1-.05,1.5-.1,0-.048.01-.1.012-.147A30.627,30.627,0,0,1,47.929,150.014Zm1.873-.41c-.053.017-.109.028-.163.045s-.116.031-.173.047c-.2.058-.394.12-.6.164a17.189,17.189,0,0,0,.1,3.078,41.23,41.23,0,0,0,1.249,6.188,18.4,18.4,0,0,0,2.186-.517,40.719,40.719,0,0,0-1.332-5.953A16.144,16.144,0,0,0,49.8,149.6Zm-5.647-20.686a17.6,17.6,0,0,1,.424,3.033c.109-.029.217-.059.327-.084a30.731,30.731,0,0,1-1.12-9.306c-.508.086-1.009.195-1.5.317,0,.025,0,.052.007.075A41.6,41.6,0,0,1,44.156,128.919Zm2.758,21.155c-.254,0-.505-.015-.754-.038-.054,0-.11,0-.163-.009a17.27,17.27,0,0,0-.847,2.934,41.281,41.281,0,0,0-.724,6.29,18.639,18.639,0,0,0,2.242.174,28.746,28.746,0,0,0,.328-9.356C46.968,150.069,46.941,150.074,46.913,150.074Zm-4.95-16.981c.02-.013.043-.023.064-.035.061-.037.12-.078.182-.115a16.5,16.5,0,0,1-1.258-1.98A16.815,16.815,0,0,1,41.964,133.093ZM43.8,159.156c.034-.709.084-1.394.142-2.065-.217.634-.453,1.285-.713,1.953C43.42,159.082,43.608,159.124,43.8,159.156Zm-3.255-28.969a41.457,41.457,0,0,1-2.284-5.765c-.454.24-.89.5-1.319.779a39.643,39.643,0,0,1,3.9,5.548C40.738,130.562,40.639,130.374,40.545,130.187Zm-2.78,26.822c.181.1.358.209.543.306q.408-1.073.841-2.076Q38.5,156.1,37.765,157.009Zm5.864-7.55c-.047-.017-.09-.041-.136-.06-.1-.04-.2-.071-.3-.113a30.3,30.3,0,0,0-4.334,8.3c.443.214.9.4,1.359.585a41.727,41.727,0,0,1,2.04-6.1A18.092,18.092,0,0,1,43.628,149.459Zm7.036-.195c-.084.039-.166.081-.252.117a17.752,17.752,0,0,1,1.26,3.086,41.151,41.151,0,0,1,1.336,5.926c.493-.171.972-.37,1.445-.581a30.959,30.959,0,0,1-3.735-8.569C50.7,149.252,50.682,149.256,50.664,149.265ZM33.6,127.918c-.35.36-.676.741-.994,1.131a41.766,41.766,0,0,1,4.935,3.634A41.557,41.557,0,0,1,33.6,127.918Zm6,7.356c.011-.014.022-.028.033-.041s.014-.024.022-.034a30.88,30.88,0,0,0-7.214-5.941c-.123.155-.25.306-.369.463A32.444,32.444,0,0,1,39.595,135.273Zm-.713,1.072c.039-.069.091-.128.131-.195.074-.125.137-.256.216-.376a30.671,30.671,0,0,0-7.531-5.559c-.269.385-.522.782-.763,1.187a40.968,40.968,0,0,0,5.01,3.551A16.253,16.253,0,0,0,38.882,136.345Zm-.172.33c.015-.029.026-.059.04-.088a17.01,17.01,0,0,1-2.938-1.408,41.2,41.2,0,0,1-5.011-3.548c-.095.163-.194.322-.283.488A29.515,29.515,0,0,0,38.7,136.7Zm1.241-1.842.023-.028a14.051,14.051,0,0,1-1.114-.879c.355.365.673.721.947,1.063C39.852,134.936,39.9,134.888,39.951,134.834Zm1.758-1.578c.013-.009.023-.021.036-.03a30.849,30.849,0,0,0-5.026-7.878c-.157.1-.317.2-.471.309a32.425,32.425,0,0,1,5.443,7.609Zm1.054-.619c.033-.017.07-.029.1-.045.194-.1.4-.177.6-.26.087-.034.168-.078.256-.111a30.521,30.521,0,0,0-2.818-8.931,18.288,18.288,0,0,0-2.069.856,41.048,41.048,0,0,0,2.273,5.761A16.958,16.958,0,0,0,42.763,132.637Zm-2.1,1.465c.032-.03.069-.053.1-.081.144-.128.283-.262.435-.382a30.6,30.6,0,0,0-5.439-7.613c-.385.289-.739.615-1.1.932A29.162,29.162,0,0,0,40.66,134.1Zm-.255.231c.017-.017.037-.031.054-.048l.009-.01a29.12,29.12,0,0,1-6.017-7.145c-.131.117-.276.219-.4.34A40.936,40.936,0,0,0,38,132.261,16.756,16.756,0,0,0,40.4,134.334Zm-3.626,8.976c.431-.058.846-.1,1.227-.123-.008-.029-.011-.058-.018-.088s-.025-.076-.034-.117C37.581,143.111,37.179,143.21,36.779,143.309Zm1.046-3.9c0-.025,0-.052.009-.076a17.176,17.176,0,0,1-3.213-.436,41.116,41.116,0,0,1-5.875-1.831c-.038.19-.081.379-.115.571a29.481,29.481,0,0,0,9.183,1.826C37.816,139.45,37.822,139.433,37.825,139.414Zm-3.02.923a19.083,19.083,0,0,1,2.9.334c0-.017,0-.034,0-.052l0-.042a17.583,17.583,0,0,0-2.939-.511,41.549,41.549,0,0,0-6.4-.054c-.01.2-.027.4-.03.6A41.937,41.937,0,0,1,34.8,140.337Zm3.069-1.265c.043-.216.1-.428.155-.638a17.516,17.516,0,0,0-2.678-1.246,41.462,41.462,0,0,0-6.215-1.722c-.133.44-.241.89-.337,1.345a41.06,41.06,0,0,0,5.879,1.837A16.583,16.583,0,0,0,37.874,139.072Zm-.148,1.235h0c0-.077,0-.155.011-.231-.065,0-.125.006-.192.006-.333,0-.69-.018-1.058-.046C36.933,140.115,37.348,140.2,37.726,140.307Zm-3.25-.525a42.582,42.582,0,0,1-5.938-1.525c-.069.492-.115.99-.148,1.491A42.269,42.269,0,0,1,34.475,139.782Zm3.07,6.145c-.447.165-.909.349-1.405.573-.9.409-1.859.907-2.845,1.47A28.134,28.134,0,0,0,37.545,145.926Zm-7.3-13.245c-.221.451-.418.913-.6,1.383a41.979,41.979,0,0,1,5.931,1.978A41.886,41.886,0,0,1,30.249,132.681Zm7.767,13.668c.4-.195.789-.37,1.153-.508-.027-.042-.048-.089-.074-.131-.012-.021-.029-.039-.041-.06C38.744,145.884,38.389,146.117,38.016,146.349Zm.208-8.537c.008-.023.016-.045.024-.067l0-.007a17.5,17.5,0,0,0-2.653-1.405,41.526,41.526,0,0,0-6.047-2.024c-.07.185-.146.368-.21.556a42.012,42.012,0,0,1,6.231,1.735A19.115,19.115,0,0,1,38.224,137.812Z" transform="translate(0 0)" fill="url(#a)"/><g transform="translate(79.51 141.188)"><path d="M81.912,158.159V142.311H93.187v1.064h-10.1v6.272h9.079v1.063H83.089v6.384H93.3v1.065Z" transform="translate(-81.912 -142.086)" fill="#007fcd" stroke="#006fb9" stroke-miterlimit="10" stroke-width="1"/><path d="M104.126,151.865v6.294h-1.177v-6.272l-6.792-9.576h1.472l5.931,8.513,5.953-8.513h1.4Z" transform="translate(-82.551 -142.086)" fill="#007fcd" stroke="#006fb9" stroke-miterlimit="10" stroke-width="1"/><path d="M114.467,158.159V142.311h11.275v1.064h-10.1v6.272h9.079v1.063h-9.079v6.384h10.211v1.065Z" transform="translate(-83.372 -142.086)" fill="#007fcd" stroke="#006fb9" stroke-miterlimit="10" stroke-width="1"/><path d="M136.675,158.159V142.311h1.178v15.848Z" transform="translate(-84.368 -142.086)" fill="#007fcd" stroke="#006fb9" stroke-miterlimit="10" stroke-width="1"/><path d="M154.984,158.159l-11.161-14.082v14.082h-1.132V142.311H143.8L154.735,156.1V142.311h1.132v15.848Z" transform="translate(-84.638 -142.086)" fill="#007fcd" stroke="#006fb9" stroke-miterlimit="10" stroke-width="1"/><path d="M171.229,155.8a4.076,4.076,0,0,1-1.087,1.372,5.143,5.143,0,0,1-1.652.883,6.792,6.792,0,0,1-2.117.316,8.9,8.9,0,0,1-3.43-.633,10.53,10.53,0,0,1-2.954-1.9l.77-.884a11.285,11.285,0,0,0,1.3,1.054,7.2,7.2,0,0,0,2.751,1.153,8.341,8.341,0,0,0,1.63.147,5.385,5.385,0,0,0,1.63-.237,3.861,3.861,0,0,0,1.267-.656,3.064,3.064,0,0,0,.816-1,2.742,2.742,0,0,0,.294-1.256v-.044a3.139,3.139,0,0,0-.193-1.134,2.171,2.171,0,0,0-.7-.9,5.081,5.081,0,0,0-1.37-.736,14.223,14.223,0,0,0-2.218-.6,15.6,15.6,0,0,1-2.445-.692,6,6,0,0,1-1.664-.928,3.178,3.178,0,0,1-.94-1.232,4.122,4.122,0,0,1-.294-1.608v-.045a3.563,3.563,0,0,1,.385-1.641,4.131,4.131,0,0,1,1.064-1.325,4.979,4.979,0,0,1,1.608-.883,6.248,6.248,0,0,1,2.037-.317,8.4,8.4,0,0,1,2.976.476A8.935,8.935,0,0,1,171.15,144l-.747.928a6.789,6.789,0,0,0-4.731-1.789,5.035,5.035,0,0,0-1.6.238,3.948,3.948,0,0,0-1.222.645,2.862,2.862,0,0,0-.781.95,2.552,2.552,0,0,0-.272,1.156v.046a3.216,3.216,0,0,0,.193,1.142,2.214,2.214,0,0,0,.7.928,4.961,4.961,0,0,0,1.415.759,16.281,16.281,0,0,0,2.31.633,9.115,9.115,0,0,1,3.984,1.6A3.439,3.439,0,0,1,171.626,154v.046A3.91,3.91,0,0,1,171.229,155.8Z" transform="translate(-85.414 -142.075)" fill="#007fcd" stroke="#006fb9" stroke-miterlimit="10" stroke-width="1"/><path d="M181.125,143.375v14.784h-1.178V143.375h-5.525v-1.064h12.225v1.064Z" transform="translate(-86.061 -142.086)" fill="#007fcd" stroke="#006fb9" stroke-miterlimit="10" stroke-width="1"/><path d="M190.434,158.159V142.311h1.178v15.848Z" transform="translate(-86.779 -142.086)" fill="#007fcd" stroke="#006fb9" stroke-miterlimit="10" stroke-width="1"/><path d="M201.568,143.375v14.784h-1.177V143.375h-5.525v-1.064h12.225v1.064Z" transform="translate(-86.978 -142.086)" fill="#007fcd" stroke="#006fb9" stroke-miterlimit="10" stroke-width="1"/><path d="M223.183,154.436a6.025,6.025,0,0,1-1.335,2.183,5.574,5.574,0,0,1-2.049,1.336,7.354,7.354,0,0,1-2.637.453,7.483,7.483,0,0,1-2.615-.44,5.662,5.662,0,0,1-2.06-1.313,5.9,5.9,0,0,1-1.347-2.139,8.363,8.363,0,0,1-.476-2.945v-9.259h1.178v9.147a6.175,6.175,0,0,0,1.415,4.356,5.115,5.115,0,0,0,3.951,1.529,6.188,6.188,0,0,0,2.173-.363,4.355,4.355,0,0,0,1.665-1.087,4.894,4.894,0,0,0,1.064-1.811,7.739,7.739,0,0,0,.373-2.513v-9.259h1.178v9.124A8.722,8.722,0,0,1,223.183,154.436Z" transform="translate(-87.686 -142.086)" fill="#007fcd" stroke="#006fb9" stroke-miterlimit="10" stroke-width="1"/><path d="M233.969,143.375v14.784h-1.178V143.375h-5.524v-1.064h12.225v1.064Z" transform="translate(-88.431 -142.086)" fill="#007fcd" stroke="#006fb9" stroke-miterlimit="10" stroke-width="1"/><path d="M243.2,158.159V142.311H254.47v1.064h-10.1v6.272h9.079v1.063h-9.079v6.384h10.211v1.065Z" transform="translate(-89.145 -142.086)" fill="#007fcd" stroke="#006fb9" stroke-miterlimit="10" stroke-width="1"/></g><g transform="translate(79.51 123.832)" opacity="0.81"><path d="M83.2,126.914a1.147,1.147,0,0,0,.329.477,2.358,2.358,0,0,0,.655.39,6.833,6.833,0,0,0,1.076.331,4.386,4.386,0,0,1,1.95.939,2.178,2.178,0,0,1,.628,1.653,2.758,2.758,0,0,1-.2,1.07,2.345,2.345,0,0,1-1.405,1.342,3.142,3.142,0,0,1-1.086.182,4.191,4.191,0,0,1-1.736-.353,4.861,4.861,0,0,1-1.5-1.092l.554-.754a4.653,4.653,0,0,0,1.255.969,3.209,3.209,0,0,0,1.459.319,1.86,1.86,0,0,0,1.283-.429,1.449,1.449,0,0,0,.481-1.135,1.73,1.73,0,0,0-.091-.58,1.146,1.146,0,0,0-.318-.462,2.16,2.16,0,0,0-.628-.377,7.007,7.007,0,0,0-1.027-.326,7.353,7.353,0,0,1-1.184-.392,2.873,2.873,0,0,1-.834-.534,1.959,1.959,0,0,1-.487-.729,2.8,2.8,0,0,1-.159-.99,2.562,2.562,0,0,1,.192-1,2.306,2.306,0,0,1,.543-.788,2.592,2.592,0,0,1,.825-.521,2.812,2.812,0,0,1,1.041-.19,3.865,3.865,0,0,1,1.521.277,4.465,4.465,0,0,1,1.261.83l-.52.793a3.831,3.831,0,0,0-1.114-.755,3,3,0,0,0-1.171-.234,1.936,1.936,0,0,0-.7.118,1.693,1.693,0,0,0-.531.312,1.306,1.306,0,0,0-.339.468,1.461,1.461,0,0,0-.119.587A1.777,1.777,0,0,0,83.2,126.914Z" transform="translate(-81.912 -123.905)" fill="#1a1818" stroke="#1a1818" stroke-miterlimit="10" stroke-width="1"/><path d="M103.25,133.17h-.961l-.928-2.406H97.052l-.938,2.406H95.2L98.8,124h.837Zm-4.038-7.96L97.4,129.853h3.608Z" transform="translate(-82.508 -123.908)" fill="#1a1818" stroke="#1a1818" stroke-miterlimit="10" stroke-width="1"/><path d="M117.08,124.068h.871v9.105h-.713l-5.112-7.466v7.466h-.871v-9.105h.837l4.988,7.3Z" transform="translate(-83.228 -123.911)" fill="#1a1818" stroke="#1a1818" stroke-miterlimit="10" stroke-width="1"/><path d="M141.1,125.018h-4.8v3.25h4.287v.937H136.3v3.968h-.893v-9.105H141.1Z" transform="translate(-84.311 -123.911)" fill="#1a1818" stroke="#1a1818" stroke-miterlimit="10" stroke-width="1"/><path d="M154.542,133.173l-2.3-3.538h-2.263v3.538h-.893v-9.105h3.4a3.4,3.4,0,0,1,1.182.2,2.556,2.556,0,0,1,.9.554,2.444,2.444,0,0,1,.577.858,2.938,2.938,0,0,1,.2,1.114,3.042,3.042,0,0,1-.159,1.02,2.413,2.413,0,0,1-.446.782,2.557,2.557,0,0,1-.685.552,2.921,2.921,0,0,1-.86.313l2.432,3.717Zm-.612-7.678a2.166,2.166,0,0,0-1.5-.477h-2.449v3.707h2.438a2.5,2.5,0,0,0,.817-.13,1.948,1.948,0,0,0,.646-.373,1.678,1.678,0,0,0,.425-.594,1.986,1.986,0,0,0,.153-.8A1.7,1.7,0,0,0,153.93,125.5Z" transform="translate(-84.925 -123.911)" fill="#1a1818" stroke="#1a1818" stroke-miterlimit="10" stroke-width="1"/><path d="M171.275,133.17h-.961l-.928-2.406h-4.31l-.938,2.406h-.916L166.83,124h.837Zm-4.038-7.96-1.81,4.643h3.609Z" transform="translate(-85.559 -123.908)" fill="#1a1818" stroke="#1a1818" stroke-miterlimit="10" stroke-width="1"/><path d="M185.1,124.068h.871v9.105h-.713l-5.112-7.466v7.466h-.871v-9.105h.837l4.988,7.3Z" transform="translate(-86.279 -123.911)" fill="#1a1818" stroke="#1a1818" stroke-miterlimit="10" stroke-width="1"/><path d="M200.836,132.38a4,4,0,0,1-.718.5,3.745,3.745,0,0,1-.825.324,3.792,3.792,0,0,1-.985.118,3.478,3.478,0,0,1-1.584-.365,3.941,3.941,0,0,1-1.256-1,4.651,4.651,0,0,1-.831-1.489,5.812,5.812,0,0,1,0-3.68,4.83,4.83,0,0,1,.831-1.5,3.92,3.92,0,0,1,1.268-1.014,3.5,3.5,0,0,1,1.607-.372,4.181,4.181,0,0,1,.977.105,3.787,3.787,0,0,1,.81.293,3.591,3.591,0,0,1,.69.455,6.343,6.343,0,0,1,.61.592l-.61.754a5.1,5.1,0,0,0-1.092-.9,2.655,2.655,0,0,0-1.4-.351,2.619,2.619,0,0,0-1.216.287,2.977,2.977,0,0,0-.972.793,3.781,3.781,0,0,0-.646,1.189,4.562,4.562,0,0,0-.231,1.477,4.614,4.614,0,0,0,.231,1.482,3.754,3.754,0,0,0,.646,1.2,3.079,3.079,0,0,0,.972.8,2.588,2.588,0,0,0,1.216.292,2.72,2.72,0,0,0,1.4-.344,4.986,4.986,0,0,0,1.154-.97l.587.665A5.96,5.96,0,0,1,200.836,132.38Z" transform="translate(-86.954 -123.904)" fill="#1a1818" stroke="#1a1818" stroke-miterlimit="10" stroke-width="1"/><path d="M210.429,124.068v9.105h-.893v-9.105Z" transform="translate(-87.636 -123.911)" fill="#1a1818" stroke="#1a1818" stroke-miterlimit="10" stroke-width="1"/><path d="M219.685,126.914a1.156,1.156,0,0,0,.329.477,2.358,2.358,0,0,0,.655.39,6.833,6.833,0,0,0,1.076.331,4.385,4.385,0,0,1,1.95.939,2.178,2.178,0,0,1,.628,1.653,2.74,2.74,0,0,1-.2,1.07,2.345,2.345,0,0,1-1.4,1.342,3.142,3.142,0,0,1-1.086.182,4.192,4.192,0,0,1-1.736-.353,4.861,4.861,0,0,1-1.5-1.092l.554-.754a4.668,4.668,0,0,0,1.255.969,3.212,3.212,0,0,0,1.459.319,1.86,1.86,0,0,0,1.283-.429,1.446,1.446,0,0,0,.481-1.135,1.73,1.73,0,0,0-.091-.58,1.146,1.146,0,0,0-.318-.462,2.147,2.147,0,0,0-.628-.377,7.028,7.028,0,0,0-1.026-.326,7.365,7.365,0,0,1-1.185-.392,2.873,2.873,0,0,1-.834-.534,1.945,1.945,0,0,1-.486-.729,2.775,2.775,0,0,1-.16-.99,2.562,2.562,0,0,1,.192-1,2.306,2.306,0,0,1,.543-.788,2.6,2.6,0,0,1,.825-.521,2.812,2.812,0,0,1,1.041-.19,3.865,3.865,0,0,1,1.521.277,4.465,4.465,0,0,1,1.261.83l-.52.793a3.831,3.831,0,0,0-1.114-.755,3,3,0,0,0-1.171-.234,1.927,1.927,0,0,0-.7.118,1.687,1.687,0,0,0-.532.312,1.306,1.306,0,0,0-.339.468,1.461,1.461,0,0,0-.118.587A1.778,1.778,0,0,0,219.685,126.914Z" transform="translate(-88.033 -123.905)" fill="#1a1818" stroke="#1a1818" stroke-miterlimit="10" stroke-width="1"/><path d="M238.588,132.38a3.969,3.969,0,0,1-.718.5,3.745,3.745,0,0,1-.825.324,3.785,3.785,0,0,1-.984.118,3.48,3.48,0,0,1-1.585-.365,3.928,3.928,0,0,1-1.255-1,4.651,4.651,0,0,1-.831-1.489,5.794,5.794,0,0,1,0-3.68,4.83,4.83,0,0,1,.831-1.5,3.9,3.9,0,0,1,1.267-1.014,3.5,3.5,0,0,1,1.606-.372,4.2,4.2,0,0,1,.978.105,3.778,3.778,0,0,1,.809.293,3.627,3.627,0,0,1,.691.455,6.57,6.57,0,0,1,.61.592l-.61.754a5.142,5.142,0,0,0-1.092-.9,2.661,2.661,0,0,0-1.4-.351,2.619,2.619,0,0,0-1.216.287,2.987,2.987,0,0,0-.972.793,3.778,3.778,0,0,0-.645,1.189,4.561,4.561,0,0,0-.232,1.477,4.613,4.613,0,0,0,.232,1.482,3.751,3.751,0,0,0,.645,1.2,3.089,3.089,0,0,0,.972.8,2.588,2.588,0,0,0,1.216.292,2.72,2.72,0,0,0,1.4-.344,4.967,4.967,0,0,0,1.154-.97l.588.665A5.967,5.967,0,0,1,238.588,132.38Z" transform="translate(-88.647 -123.904)" fill="#1a1818" stroke="#1a1818" stroke-miterlimit="10" stroke-width="1"/><path d="M254.446,130.4a4.886,4.886,0,0,1-.826,1.5,4,4,0,0,1-1.278,1.033,3.756,3.756,0,0,1-3.3.008,4,4,0,0,1-1.272-1.022,4.674,4.674,0,0,1-.82-1.495,5.573,5.573,0,0,1-.288-1.8,5.478,5.478,0,0,1,.293-1.8,4.869,4.869,0,0,1,.826-1.5,4,4,0,0,1,1.278-1.033,3.752,3.752,0,0,1,3.3-.007,3.983,3.983,0,0,1,1.272,1.021,4.684,4.684,0,0,1,.82,1.495,5.572,5.572,0,0,1,.288,1.8A5.5,5.5,0,0,1,254.446,130.4Zm-.865-3.246a3.711,3.711,0,0,0-.65-1.2,3.177,3.177,0,0,0-.99-.806,2.642,2.642,0,0,0-1.25-.3,2.708,2.708,0,0,0-1.25.292,3,3,0,0,0-.978.8,3.854,3.854,0,0,0-.639,1.189,4.513,4.513,0,0,0-.232,1.463,4.565,4.565,0,0,0,.232,1.469,3.711,3.711,0,0,0,.65,1.2,3.177,3.177,0,0,0,.99.806,2.639,2.639,0,0,0,1.25.3,2.708,2.708,0,0,0,1.25-.292,2.985,2.985,0,0,0,.977-.8,3.857,3.857,0,0,0,.64-1.189,4.513,4.513,0,0,0,.232-1.463A4.564,4.564,0,0,0,253.58,127.157Z" transform="translate(-89.301 -123.904)" fill="#1a1818" stroke="#1a1818" stroke-miterlimit="10" stroke-width="1"/></g></g></svg>