<svg xmlns="http://www.w3.org/2000/svg" width="97.366" height="77.603" viewBox="0 0 97.366 77.603">
  <path id="Path_4251" data-name="Path 4251" d="M-25.73-137.02a19.782,19.782,0,0,1-9.765-2.325,23.647,23.647,0,0,1-7.13-6.045,26.9,26.9,0,0,1-4.5-8.525,31.624,31.624,0,0,1-1.55-9.765q0-10.85,2.635-18.29a38.929,38.929,0,0,1,7.6-13.02,59.3,59.3,0,0,1,11.78-10.075q6.82-4.5,14.88-9.145,2.17-1.24,3.72,1.24t-.62,4.03q-4.96,3.72-9.3,7.285a50.593,50.593,0,0,0-7.44,7.44,21.238,21.238,0,0,0-4.185,8.525,21.826,21.826,0,0,0,.465,10.54,4.611,4.611,0,0,0,2.17,3.255,15.751,15.751,0,0,0,5.27,1.085q7.13.62,10.695,5.425A19.476,19.476,0,0,1-7.44-153.45a14.679,14.679,0,0,1-5.58,11.78A19.3,19.3,0,0,1-25.73-137.02Zm56.11,0a19.782,19.782,0,0,1-9.765-2.325,23.647,23.647,0,0,1-7.13-6.045,26.9,26.9,0,0,1-4.5-8.525,31.625,31.625,0,0,1-1.55-9.765q0-10.85,2.635-18.29a38.929,38.929,0,0,1,7.6-13.02,59.3,59.3,0,0,1,11.78-10.075q6.82-4.5,14.88-9.145,2.17-1.24,3.72,1.24t-.62,4.03q-4.96,3.72-9.3,7.285a50.592,50.592,0,0,0-7.44,7.44A21.238,21.238,0,0,0,26.5-185.69a21.826,21.826,0,0,0,.465,10.54,4.611,4.611,0,0,0,2.17,3.255,15.751,15.751,0,0,0,5.27,1.085q7.13.62,10.695,5.425A19.476,19.476,0,0,1,48.67-153.45a14.679,14.679,0,0,1-5.58,11.78A19.3,19.3,0,0,1,30.38-137.02Z" transform="translate(48.67 214.623)" fill="#fff"/>
</svg>
