<svg xmlns="http://www.w3.org/2000/svg" width="24.298" height="21.598" viewBox="0 0 24.298 21.598"><path d="M1848.219,6389.711a7.96,7.96,0,0,0,4.4-7.1c0-.136,0-.276-.011-.416l4.229,7.518Zm-15.685,0,4.229-7.518c-.01.14-.013.279-.013.416a7.96,7.96,0,0,0,4.4,7.1Zm5.531-7.1a6.617,6.617,0,1,1,6.617,6.618A6.626,6.626,0,0,1,1838.065,6382.608Zm5.978,4.24-.691,1.2h2.662l-.691-1.2,2.067-3.483a3.8,3.8,0,0,1,1.071,2.255l.372,0a4.446,4.446,0,0,0,.024-.454,4.174,4.174,0,0,0-.956-2.659l1.086-1.828.593.356.031-2.357-2.054,1.153.6.353-.972,1.639a4.146,4.146,0,0,0-2.017-.8v-2h.694l-1.179-2.04-1.176,2.04h.693v2a4.128,4.128,0,0,0-2.016.8l-.973-1.639.6-.353-2.053-1.153.029,2.354.6-.353,1.084,1.828a4.178,4.178,0,0,0-.954,2.659c0,.151.008.3.022.454l.372,0a3.788,3.788,0,0,1,1.073-2.255Zm1.123-4.584a3.811,3.811,0,0,1,1.456.5l-1.456,2.452Zm-2.422.5a3.786,3.786,0,0,1,1.454-.5v2.952Zm1.937-8.089a7.916,7.916,0,0,0-4.468,1.381l4.468-7.943,4.469,7.943A7.918,7.918,0,0,0,1844.681,6374.675Z" transform="translate(-1832.534 -6368.113)" fill="#243c59"/></svg>