<svg xmlns="http://www.w3.org/2000/svg" width="15.156" height="15.595" viewBox="0 0 15.156 15.595"><g transform="translate(0 0)"><path d="M587.115,2337.683a3.972,3.972,0,0,1,.4,1.747.6.6,0,0,0,.6.6h0a.6.6,0,0,0,.6-.6,5.206,5.206,0,0,0-2.447-4.413,5.216,5.216,0,0,0-2.69-.789.6.6,0,1,0-.016,1.192A3.991,3.991,0,0,1,587.115,2337.683Z" transform="translate(-576.203 -2331.577)" fill="#fff"/><path d="M590.574,2271.916a7.852,7.852,0,0,0-7.006-4.432h-.005a.6.6,0,0,0-.005,1.192,6.666,6.666,0,0,1,6.61,6.661.6.6,0,0,0,.6.6h0a.6.6,0,0,0,.6-.6A7.779,7.779,0,0,0,590.574,2271.916Z" transform="translate(-576.203 -2267.484)" fill="#fff"/><path d="M425.094,2284.1a1.12,1.12,0,0,0-1.452-.159l-1.266.813a19.615,19.615,0,0,1-5.474-5.865l.9-1.208a1.126,1.126,0,0,0-.058-1.46l-1.974-2.115a1.163,1.163,0,0,0-1.753.059l-.55.677a3.178,3.178,0,0,0-.735,2.145,6.471,6.471,0,0,0,.6,2.483,18.759,18.759,0,0,0,3.475,4.992,21.674,21.674,0,0,0,3.634,3.161,7.264,7.264,0,0,0,3.851,1.46,2.991,2.991,0,0,0,1.883-.623l.71-.5a1.163,1.163,0,0,0,.181-1.745Z" transform="translate(-412.731 -2273.49)" fill="#fff"/></g></svg>