<svg xmlns="http://www.w3.org/2000/svg" width="25.013" height="33.113" viewBox="0 0 25.013 33.113"><path d="M.638,15.943c-.533.864-.76,3.58-.573,5.379a4.28,4.28,0,0,0,.328,1.385,1.144,1.144,0,0,0,.978.668c.264.015.429-.034,5.354-1.63l2.2-.711a1.34,1.34,0,0,0,.95-1.293,1.419,1.419,0,0,0-.861-1.459l-1.548-.634c-5.3-2.2-5.532-2.293-5.8-2.3a1.164,1.164,0,0,0-1.027.592M12.48,32.361c.086-.248.1-.42.11-5.645,0,0,.012-2.3.015-2.329a1.342,1.342,0,0,0-.922-1.312,1.412,1.412,0,0,0-1.64.371L8.959,24.739c-3.708,4.4-3.865,4.6-3.954,4.861a1.053,1.053,0,0,0-.061.478,1.29,1.29,0,0,0,.3.677c.861,1.033,4.986,2.562,6.3,2.335a1.137,1.137,0,0,0,.935-.729m8.37-1.814c1.244-.5,3.957-3.981,4.147-5.324a1.17,1.17,0,0,0-.4-1.125c-.208-.159-.368-.221-5.293-1.854,0,0-2.158-.717-2.188-.733A1.333,1.333,0,0,0,15.6,22a1.434,1.434,0,0,0-.147,1.7l.87,1.428c2.924,4.79,3.148,5.127,3.359,5.293a1.123,1.123,0,0,0,1.168.129M18.3,18.214c5.6-1.367,5.814-1.441,6.035-1.588a1.153,1.153,0,0,0,.478-1.082.255.255,0,0,0,0-.049c-.141-1.388-2.55-4.993-3.736-5.578a1.151,1.151,0,0,0-1.192.046c-.215.141-.374.356-3.371,4.493,0,0-1.352,1.86-1.367,1.879a1.349,1.349,0,0,0-.012,1.606,1.4,1.4,0,0,0,1.529.671l-.028.046a16.121,16.121,0,0,1,1.664-.444m-5.615-4.662c-.1-2.237-.763-12.2-.843-12.664a1.186,1.186,0,0,0-.9-.837c-1.431-.356-6.89,1.189-7.9,2.24a1.2,1.2,0,0,0-.349,1.134c.159.331,6.927,11.07,6.927,11.07,1,1.637,1.814,1.382,2.081,1.3s1.079-.334.987-2.24" transform="translate(0 0)" fill="#007fcd"/></svg>